G04*
G04 #@! TF.GenerationSoftware,Altium Limited,Altium Designer,25.3.3 (18)*
G04*
G04 Layer_Color=65535*
%FSLAX44Y44*%
%MOMM*%
G71*
G04*
G04 #@! TF.SameCoordinates,99CC6AD0-2A63-4927-AC08-F09ED2D19244*
G04*
G04*
G04 #@! TF.FilePolarity,Positive*
G04*
G01*
G75*
%ADD10C,0.2540*%
%ADD11C,0.2000*%
%ADD12C,0.1270*%
G36*
X408932Y705412D02*
X409271Y705384D01*
X409440D01*
X409581Y705356D01*
X409892Y705328D01*
X410258Y705271D01*
X410343D01*
X410456Y705243D01*
X410569D01*
X410879Y705186D01*
X411246Y705130D01*
X411331D01*
X411444Y705102D01*
X411557Y705074D01*
X411867Y705017D01*
X412177Y704961D01*
Y702929D01*
X412121D01*
X412008Y702985D01*
X411810Y703014D01*
X411557Y703070D01*
X411274Y703127D01*
X410936Y703211D01*
X410202Y703324D01*
X410174D01*
X410033Y703352D01*
X409863Y703380D01*
X409609Y703409D01*
X409327Y703437D01*
X408989Y703465D01*
X408311Y703493D01*
X408001D01*
X407662Y703465D01*
X407239Y703409D01*
X406759Y703324D01*
X406279Y703211D01*
X405856Y703042D01*
X405461Y702816D01*
X405433Y702788D01*
X405320Y702703D01*
X405179Y702562D01*
X405010Y702365D01*
X404840Y702111D01*
X404699Y701800D01*
X404586Y701461D01*
X404558Y701066D01*
Y701038D01*
Y700954D01*
X404586Y700841D01*
X404615Y700671D01*
X404727Y700304D01*
X404812Y700107D01*
X404925Y699909D01*
X404953Y699881D01*
X404981Y699825D01*
X405066Y699740D01*
X405179Y699627D01*
X405489Y699345D01*
X405884Y699035D01*
X405913Y699006D01*
X405997Y698978D01*
X406110Y698894D01*
X406308Y698809D01*
X406505Y698696D01*
X406731Y698583D01*
X407295Y698357D01*
X407324D01*
X407436Y698301D01*
X407578Y698244D01*
X407803Y698160D01*
X408029Y698075D01*
X408283Y697962D01*
X408876Y697708D01*
X408904D01*
X409017Y697652D01*
X409186Y697596D01*
X409384Y697511D01*
X409638Y697398D01*
X409892Y697285D01*
X410484Y697003D01*
X410512Y696975D01*
X410625Y696946D01*
X410766Y696862D01*
X410964Y696749D01*
X411415Y696439D01*
X411867Y696072D01*
X411895Y696043D01*
X411980Y695987D01*
X412093Y695874D01*
X412234Y695705D01*
X412375Y695535D01*
X412544Y695310D01*
X412855Y694802D01*
X412883Y694773D01*
X412911Y694661D01*
X412967Y694520D01*
X413052Y694322D01*
X413137Y694068D01*
X413193Y693758D01*
X413222Y693447D01*
X413250Y693080D01*
Y693024D01*
Y692883D01*
X413222Y692657D01*
X413193Y692375D01*
X413137Y692065D01*
X413024Y691698D01*
X412911Y691331D01*
X412742Y690992D01*
X412714Y690964D01*
X412657Y690851D01*
X412544Y690682D01*
X412403Y690484D01*
X412206Y690258D01*
X411980Y690004D01*
X411698Y689751D01*
X411387Y689525D01*
X411359Y689497D01*
X411246Y689440D01*
X411049Y689327D01*
X410823Y689186D01*
X410512Y689045D01*
X410174Y688904D01*
X409779Y688763D01*
X409327Y688650D01*
X409271D01*
X409130Y688594D01*
X408876Y688565D01*
X408537Y688509D01*
X408142Y688452D01*
X407691Y688424D01*
X407183Y688368D01*
X406251D01*
X406026Y688396D01*
X405828D01*
X405320Y688424D01*
X405207D01*
X405094Y688452D01*
X404925D01*
X404530Y688509D01*
X404078Y688565D01*
X403965D01*
X403853Y688594D01*
X403712D01*
X403345Y688650D01*
X402950Y688706D01*
X402921D01*
X402865Y688735D01*
X402752Y688763D01*
X402639Y688791D01*
X402329Y688876D01*
X401990Y688960D01*
Y691133D01*
X402047Y691105D01*
X402160Y691077D01*
X402357Y691020D01*
X402611Y690936D01*
X402921Y690823D01*
X403288Y690738D01*
X403683Y690654D01*
X404107Y690569D01*
X404163D01*
X404304Y690541D01*
X404558Y690512D01*
X404897Y690484D01*
X405292Y690428D01*
X405743Y690399D01*
X406251Y690371D01*
X407211D01*
X407465Y690399D01*
X407747D01*
X408057Y690456D01*
X408368Y690484D01*
X408678Y690541D01*
X408706D01*
X408819Y690569D01*
X408932Y690625D01*
X409130Y690654D01*
X409525Y690823D01*
X409920Y691020D01*
X409948Y691049D01*
X410005Y691077D01*
X410089Y691161D01*
X410202Y691246D01*
X410456Y691500D01*
X410653Y691839D01*
Y691867D01*
X410682Y691923D01*
X410738Y692036D01*
X410766Y692177D01*
X410823Y692347D01*
X410851Y692544D01*
X410879Y692968D01*
Y692996D01*
Y693080D01*
X410851Y693193D01*
X410823Y693363D01*
X410710Y693729D01*
X410625Y693899D01*
X410484Y694096D01*
X410456Y694125D01*
X410428Y694181D01*
X410343Y694266D01*
X410230Y694378D01*
X410089Y694520D01*
X409920Y694661D01*
X409496Y694943D01*
X409468Y694971D01*
X409384Y694999D01*
X409271Y695084D01*
X409101Y695169D01*
X408904Y695282D01*
X408678Y695394D01*
X408114Y695648D01*
X408086Y695676D01*
X407973Y695705D01*
X407832Y695761D01*
X407606Y695846D01*
X407380Y695930D01*
X407098Y696043D01*
X406505Y696269D01*
X406477Y696297D01*
X406364Y696326D01*
X406223Y696410D01*
X406026Y696495D01*
X405772Y696608D01*
X405518Y696721D01*
X404925Y697003D01*
X404897Y697031D01*
X404784Y697087D01*
X404643Y697144D01*
X404445Y697257D01*
X404248Y697398D01*
X403994Y697539D01*
X403514Y697906D01*
X403486Y697934D01*
X403429Y697990D01*
X403316Y698103D01*
X403175Y698273D01*
X403034Y698442D01*
X402865Y698668D01*
X402555Y699147D01*
X402526Y699176D01*
X402498Y699289D01*
X402442Y699430D01*
X402385Y699627D01*
X402301Y699881D01*
X402244Y700163D01*
X402216Y700502D01*
X402188Y700841D01*
Y700869D01*
Y700982D01*
X402216Y701151D01*
X402244Y701377D01*
X402272Y701631D01*
X402329Y701913D01*
X402413Y702223D01*
X402526Y702534D01*
X402555Y702562D01*
X402583Y702675D01*
X402696Y702816D01*
X402808Y703014D01*
X402950Y703239D01*
X403147Y703493D01*
X403373Y703747D01*
X403627Y704001D01*
X403655Y704029D01*
X403768Y704114D01*
X403937Y704227D01*
X404163Y704368D01*
X404417Y704537D01*
X404756Y704707D01*
X405122Y704876D01*
X405546Y705045D01*
X405602Y705074D01*
X405772Y705102D01*
X405997Y705158D01*
X406336Y705243D01*
X406759Y705328D01*
X407239Y705384D01*
X407775Y705412D01*
X408368Y705440D01*
X408650D01*
X408932Y705412D01*
D02*
G37*
G36*
X338327Y705384D02*
X338666Y705356D01*
X339005Y705328D01*
X339766Y705215D01*
X339823D01*
X339936Y705186D01*
X340133Y705130D01*
X340387Y705074D01*
X340669Y704989D01*
X340980Y704876D01*
X341685Y704622D01*
Y702393D01*
X341657Y702421D01*
X341516Y702477D01*
X341347Y702562D01*
X341093Y702675D01*
X340811Y702788D01*
X340500Y702901D01*
X339795Y703127D01*
X339738D01*
X339625Y703183D01*
X339428Y703211D01*
X339174Y703268D01*
X338863Y703324D01*
X338497Y703352D01*
X338101Y703409D01*
X337481D01*
X337255Y703380D01*
X336973Y703352D01*
X336662Y703296D01*
X336295Y703211D01*
X335928Y703098D01*
X335562Y702957D01*
X335533Y702929D01*
X335421Y702872D01*
X335223Y702760D01*
X335025Y702618D01*
X334771Y702449D01*
X334489Y702223D01*
X334207Y701970D01*
X333953Y701659D01*
X333925Y701631D01*
X333840Y701518D01*
X333727Y701349D01*
X333586Y701095D01*
X333417Y700813D01*
X333248Y700446D01*
X333078Y700051D01*
X332937Y699627D01*
Y699571D01*
X332881Y699430D01*
X332824Y699176D01*
X332768Y698837D01*
X332711Y698442D01*
X332655Y697990D01*
X332627Y697483D01*
X332599Y696918D01*
Y696890D01*
Y696777D01*
Y696608D01*
X332627Y696382D01*
Y696128D01*
X332655Y695818D01*
X332711Y695479D01*
X332768Y695112D01*
X332909Y694322D01*
X333135Y693504D01*
X333474Y692742D01*
X333671Y692403D01*
X333897Y692065D01*
X333925Y692036D01*
X333953Y692008D01*
X334038Y691923D01*
X334151Y691811D01*
X334264Y691698D01*
X334433Y691556D01*
X334630Y691387D01*
X334856Y691246D01*
X335110Y691105D01*
X335392Y690936D01*
X335731Y690795D01*
X336070Y690682D01*
X336437Y690569D01*
X336832Y690512D01*
X337283Y690456D01*
X337735Y690428D01*
X338130D01*
X338384Y690456D01*
X338694Y690484D01*
X339033Y690512D01*
X339766Y690654D01*
X339823D01*
X339936Y690710D01*
X340133Y690766D01*
X340387Y690851D01*
X340669Y690936D01*
X340980Y691049D01*
X341685Y691359D01*
Y689214D01*
X341657D01*
X341601Y689186D01*
X341488Y689130D01*
X341347Y689101D01*
X341149Y689017D01*
X340923Y688960D01*
X340698Y688876D01*
X340415Y688819D01*
X339766Y688650D01*
X339061Y688537D01*
X338299Y688424D01*
X337481Y688396D01*
X337340D01*
X337142Y688424D01*
X336888D01*
X336606Y688452D01*
X336267Y688509D01*
X335900Y688565D01*
X335477Y688650D01*
X335054Y688763D01*
X334602Y688904D01*
X334151Y689073D01*
X333699Y689271D01*
X333276Y689525D01*
X332853Y689807D01*
X332429Y690117D01*
X332062Y690484D01*
X332034Y690512D01*
X331978Y690597D01*
X331893Y690710D01*
X331780Y690879D01*
X331639Y691105D01*
X331470Y691359D01*
X331301Y691698D01*
X331131Y692065D01*
X330962Y692459D01*
X330793Y692939D01*
X330623Y693447D01*
X330482Y693983D01*
X330369Y694604D01*
X330285Y695253D01*
X330228Y695959D01*
X330200Y696692D01*
Y696721D01*
Y696777D01*
Y696890D01*
Y697031D01*
X330228Y697200D01*
Y697426D01*
X330256Y697906D01*
X330313Y698442D01*
X330426Y699063D01*
X330539Y699684D01*
X330708Y700304D01*
Y700333D01*
X330736Y700389D01*
X330764Y700474D01*
X330793Y700587D01*
X330934Y700869D01*
X331075Y701264D01*
X331301Y701687D01*
X331554Y702139D01*
X331837Y702618D01*
X332175Y703042D01*
X332232Y703098D01*
X332345Y703239D01*
X332570Y703437D01*
X332853Y703691D01*
X333191Y703973D01*
X333586Y704255D01*
X334038Y704537D01*
X334518Y704791D01*
X334546D01*
X334574Y704820D01*
X334659Y704848D01*
X334771Y704876D01*
X335054Y704989D01*
X335421Y705102D01*
X335872Y705215D01*
X336408Y705328D01*
X337001Y705384D01*
X337622Y705412D01*
X338045D01*
X338327Y705384D01*
D02*
G37*
G36*
X454196Y700587D02*
X452108D01*
X451741Y706541D01*
X454563D01*
X454196Y700587D01*
D02*
G37*
G36*
X449229D02*
X447141D01*
X446774Y706541D01*
X449596D01*
X449229Y700587D01*
D02*
G37*
G36*
X396967D02*
X394879D01*
X394512Y706541D01*
X397334D01*
X396967Y700587D01*
D02*
G37*
G36*
X392001D02*
X389912D01*
X389545Y706541D01*
X392367D01*
X392001Y700587D01*
D02*
G37*
G36*
X492857Y697285D02*
X499714Y688594D01*
X496892D01*
X490656Y696721D01*
Y688594D01*
X488398D01*
Y705186D01*
X490656D01*
Y697454D01*
X496751Y705186D01*
X499403D01*
X492857Y697285D01*
D02*
G37*
G36*
X349784D02*
X356642Y688594D01*
X353820D01*
X347583Y696721D01*
Y688594D01*
X345326D01*
Y705186D01*
X347583D01*
Y697454D01*
X353679Y705186D01*
X356331D01*
X349784Y697285D01*
D02*
G37*
G36*
X438224Y689948D02*
Y689920D01*
X438196Y689863D01*
X438167Y689779D01*
X438111Y689666D01*
X437970Y689327D01*
X437801Y688932D01*
X437575Y688481D01*
X437349Y687973D01*
X437095Y687465D01*
X436813Y686985D01*
X436785Y686928D01*
X436700Y686787D01*
X436559Y686534D01*
X436361Y686251D01*
X436136Y685913D01*
X435853Y685574D01*
X435571Y685235D01*
X435261Y684897D01*
X435233Y684868D01*
X435120Y684756D01*
X434950Y684614D01*
X434725Y684445D01*
X434442Y684248D01*
X434132Y684050D01*
X433765Y683881D01*
X433398Y683711D01*
X433342Y683683D01*
X433229Y683655D01*
X433003Y683599D01*
X432721Y683514D01*
X432382Y683429D01*
X432016Y683373D01*
X431564Y683345D01*
X431113Y683316D01*
X430718D01*
X430492Y683345D01*
X430153D01*
X429927Y683373D01*
Y685377D01*
X429984D01*
X430097Y685348D01*
X430294D01*
X430520Y685320D01*
X430576D01*
X430746Y685292D01*
X430971Y685264D01*
X431451D01*
X431592Y685292D01*
X431987Y685348D01*
X432382Y685461D01*
X432411D01*
X432467Y685489D01*
X432580Y685546D01*
X432721Y685602D01*
X433032Y685771D01*
X433370Y686025D01*
X433398Y686054D01*
X433455Y686110D01*
X433539Y686195D01*
X433652Y686308D01*
X433793Y686449D01*
X433963Y686646D01*
X434273Y687070D01*
X434301Y687098D01*
X434358Y687182D01*
X434442Y687324D01*
X434555Y687493D01*
X434668Y687719D01*
X434809Y688001D01*
X434979Y688283D01*
X435120Y688594D01*
X430040Y701349D01*
X432552D01*
X435769Y692883D01*
X436418Y690908D01*
X437151Y692939D01*
X440143Y701349D01*
X442570D01*
X438224Y689948D01*
D02*
G37*
G36*
X527171Y703268D02*
X523334D01*
Y690512D01*
X527171D01*
Y688594D01*
X517210D01*
Y690512D01*
X521048D01*
Y703268D01*
X517210D01*
Y705186D01*
X527171D01*
Y703268D01*
D02*
G37*
G36*
X514896Y688594D02*
X512441D01*
X511284Y692206D01*
X504342D01*
X503185Y688594D01*
X500843D01*
X506345Y705186D01*
X509450D01*
X514896Y688594D01*
D02*
G37*
G36*
X419402Y695507D02*
X425130Y701349D01*
X428065D01*
X422082Y695451D01*
X428404Y688594D01*
X425356D01*
X419402Y695423D01*
Y688594D01*
X417200D01*
Y706541D01*
X419402D01*
Y695507D01*
D02*
G37*
G36*
X369679Y703268D02*
X361919D01*
Y698357D01*
X364853D01*
X365136Y698329D01*
X365503Y698301D01*
X365926Y698273D01*
X366377Y698216D01*
X366829Y698103D01*
X367280Y697990D01*
X367337Y697962D01*
X367478Y697934D01*
X367704Y697849D01*
X367958Y697737D01*
X368268Y697596D01*
X368607Y697398D01*
X368917Y697200D01*
X369227Y696975D01*
X369256Y696946D01*
X369369Y696862D01*
X369510Y696721D01*
X369679Y696551D01*
X369877Y696354D01*
X370074Y696100D01*
X370243Y695818D01*
X370413Y695507D01*
X370441Y695479D01*
X370469Y695366D01*
X370554Y695197D01*
X370638Y694971D01*
X370695Y694689D01*
X370779Y694378D01*
X370808Y694040D01*
X370836Y693673D01*
Y693616D01*
Y693475D01*
X370808Y693250D01*
X370779Y692968D01*
X370723Y692629D01*
X370638Y692262D01*
X370526Y691895D01*
X370356Y691528D01*
X370328Y691500D01*
X370271Y691387D01*
X370159Y691190D01*
X370018Y690992D01*
X369848Y690738D01*
X369622Y690456D01*
X369369Y690174D01*
X369058Y689920D01*
X369030Y689892D01*
X368917Y689807D01*
X368719Y689694D01*
X368494Y689553D01*
X368183Y689384D01*
X367845Y689242D01*
X367450Y689073D01*
X366998Y688932D01*
X366942D01*
X366801Y688876D01*
X366547Y688819D01*
X366236Y688763D01*
X365841Y688706D01*
X365390Y688650D01*
X364882Y688622D01*
X364346Y688594D01*
X359661D01*
Y705186D01*
X369679D01*
Y703268D01*
D02*
G37*
G36*
X534001Y707472D02*
X534029Y707444D01*
X534113Y707359D01*
X534226Y707246D01*
X534367Y707105D01*
X534509Y706964D01*
X534903Y706541D01*
X535327Y706033D01*
X535835Y705440D01*
X536371Y704735D01*
X536907Y703945D01*
X537443Y703098D01*
X537979Y702167D01*
X538487Y701151D01*
X538939Y700107D01*
X539306Y699006D01*
X539588Y697849D01*
X539701Y697257D01*
X539785Y696664D01*
X539814Y696043D01*
X539842Y695423D01*
Y695394D01*
Y695366D01*
Y695282D01*
Y695197D01*
Y694915D01*
X539814Y694548D01*
X539785Y694125D01*
X539729Y693645D01*
X539644Y693109D01*
X539560Y692572D01*
Y692544D01*
Y692516D01*
X539532Y692431D01*
X539503Y692318D01*
X539447Y692036D01*
X539334Y691641D01*
X539193Y691190D01*
X539024Y690682D01*
X538826Y690145D01*
X538600Y689581D01*
Y689553D01*
X538572Y689525D01*
X538544Y689440D01*
X538487Y689327D01*
X538318Y689017D01*
X538120Y688622D01*
X537867Y688142D01*
X537528Y687634D01*
X537189Y687070D01*
X536766Y686477D01*
Y686449D01*
X536710Y686392D01*
X536653Y686308D01*
X536568Y686195D01*
X536456Y686054D01*
X536315Y685884D01*
X535976Y685461D01*
X535581Y684981D01*
X535101Y684445D01*
X534537Y683853D01*
X533916Y683260D01*
X532646Y684586D01*
X532674Y684614D01*
X532759Y684699D01*
X532872Y684840D01*
X533041Y685010D01*
X533267Y685235D01*
X533493Y685518D01*
X533746Y685800D01*
X534029Y686138D01*
X534311Y686505D01*
X534621Y686900D01*
X535242Y687775D01*
X535807Y688706D01*
X536060Y689214D01*
X536315Y689694D01*
X536343Y689722D01*
X536371Y689807D01*
X536427Y689948D01*
X536512Y690145D01*
X536597Y690399D01*
X536710Y690682D01*
X536822Y691020D01*
X536935Y691387D01*
X537048Y691782D01*
X537161Y692206D01*
X537359Y693165D01*
X537500Y694181D01*
X537556Y694717D01*
Y695253D01*
Y695282D01*
Y695310D01*
Y695394D01*
Y695535D01*
X537528Y695676D01*
Y695846D01*
X537472Y696269D01*
X537415Y696805D01*
X537302Y697426D01*
X537133Y698103D01*
X536935Y698865D01*
X536681Y699684D01*
X536371Y700558D01*
X535948Y701461D01*
X535496Y702393D01*
X534932Y703324D01*
X534254Y704255D01*
X533521Y705215D01*
X533097Y705666D01*
X532646Y706118D01*
X533972Y707501D01*
X534001Y707472D01*
D02*
G37*
G36*
X483121Y706174D02*
X483064Y706118D01*
X482923Y705948D01*
X482669Y705694D01*
X482359Y705328D01*
X481964Y704876D01*
X481569Y704340D01*
X481117Y703691D01*
X480666Y703014D01*
X480186Y702252D01*
X479735Y701405D01*
X479339Y700530D01*
X478945Y699571D01*
X478634Y698583D01*
X478408Y697567D01*
X478239Y696495D01*
X478211Y695959D01*
X478182Y695394D01*
Y695366D01*
Y695253D01*
Y695112D01*
X478211Y694886D01*
Y694632D01*
X478239Y694322D01*
X478295Y693983D01*
X478352Y693588D01*
X478408Y693165D01*
X478493Y692742D01*
X478719Y691782D01*
X479029Y690766D01*
X479198Y690258D01*
X479424Y689751D01*
X479452Y689722D01*
X479481Y689638D01*
X479565Y689497D01*
X479650Y689299D01*
X479791Y689045D01*
X479960Y688763D01*
X480130Y688452D01*
X480355Y688085D01*
X480609Y687719D01*
X480863Y687324D01*
X481174Y686900D01*
X481512Y686449D01*
X481879Y685997D01*
X482246Y685546D01*
X482669Y685094D01*
X483121Y684643D01*
X481766Y683260D01*
X481738Y683288D01*
X481710Y683316D01*
X481625Y683401D01*
X481512Y683514D01*
X481371Y683655D01*
X481230Y683796D01*
X480863Y684220D01*
X480412Y684727D01*
X479932Y685320D01*
X479396Y686025D01*
X478860Y686787D01*
X478295Y687634D01*
X477788Y688565D01*
X477280Y689553D01*
X476828Y690597D01*
X476461Y691698D01*
X476179Y692826D01*
X476066Y693419D01*
X475981Y694012D01*
X475953Y694604D01*
X475925Y695225D01*
Y695253D01*
Y695310D01*
Y695366D01*
Y695479D01*
X475953Y695789D01*
Y696184D01*
X476010Y696664D01*
X476066Y697172D01*
X476123Y697737D01*
X476235Y698301D01*
Y698329D01*
X476264Y698357D01*
Y698442D01*
X476292Y698555D01*
X476376Y698865D01*
X476489Y699260D01*
X476602Y699712D01*
X476772Y700220D01*
X476997Y700784D01*
X477223Y701349D01*
Y701377D01*
X477251Y701433D01*
X477308Y701490D01*
X477364Y701603D01*
X477505Y701913D01*
X477731Y702308D01*
X477985Y702788D01*
X478295Y703296D01*
X478662Y703860D01*
X479057Y704425D01*
Y704453D01*
X479114Y704509D01*
X479170Y704566D01*
X479255Y704678D01*
X479509Y704989D01*
X479819Y705384D01*
X480243Y705864D01*
X480694Y706372D01*
X481230Y706936D01*
X481823Y707501D01*
X483121Y706174D01*
D02*
G37*
%LPC*%
G36*
X507813Y703098D02*
X504991Y694237D01*
X510635D01*
X507813Y703098D01*
D02*
G37*
G36*
X364825Y696495D02*
X361919D01*
Y690512D01*
X364825D01*
X364995Y690541D01*
X365192Y690569D01*
X365615Y690625D01*
X366095Y690710D01*
X366575Y690851D01*
X367054Y691049D01*
X367450Y691302D01*
X367506Y691331D01*
X367619Y691444D01*
X367760Y691641D01*
X367958Y691867D01*
X368127Y692206D01*
X368296Y692572D01*
X368409Y693024D01*
X368437Y693532D01*
Y693560D01*
Y693645D01*
Y693758D01*
X368409Y693927D01*
X368324Y694294D01*
X368183Y694717D01*
Y694745D01*
X368155Y694802D01*
X368099Y694915D01*
X368014Y695056D01*
X367788Y695366D01*
X367478Y695676D01*
X367450Y695705D01*
X367393Y695733D01*
X367280Y695818D01*
X367139Y695902D01*
X366970Y695987D01*
X366744Y696100D01*
X366518Y696184D01*
X366236Y696269D01*
X366208D01*
X366095Y696297D01*
X365954Y696354D01*
X365728Y696382D01*
X365474Y696439D01*
X365164Y696467D01*
X364825Y696495D01*
D02*
G37*
%LPD*%
D10*
X491457Y393628D02*
G03*
X448352Y393777I-21557J-1198D01*
G01*
X416560Y345440D02*
X853440D01*
X416560Y137160D02*
X853440D01*
X416560D02*
Y345440D01*
X853440Y137160D02*
Y345440D01*
X60960Y124460D02*
Y231140D01*
X269240Y124460D02*
Y231140D01*
X60960D02*
X269240D01*
X60960Y124460D02*
X269240D01*
X142240Y650240D02*
Y711200D01*
X218440Y650240D02*
Y711200D01*
X142240D02*
X218440D01*
X142240Y650240D02*
X218440D01*
X86360Y254000D02*
Y711200D01*
X269240Y254000D02*
Y711200D01*
X86360D02*
X269240D01*
X86360Y254000D02*
X269240D01*
X521970Y392430D02*
Y598170D01*
X417830Y392430D02*
Y598170D01*
Y392430D02*
X521970D01*
X417830Y598170D02*
X521970D01*
X655320Y365760D02*
X767080D01*
X655320Y523240D02*
X767080D01*
X619760Y365760D02*
Y523240D01*
X650240Y365760D02*
Y523240D01*
X619760D02*
X650240D01*
X619760Y365760D02*
X650240D01*
X772160D02*
Y523240D01*
X802640Y365760D02*
Y523240D01*
X772160D02*
X802640D01*
X772160Y365760D02*
X802640D01*
X655320Y543560D02*
X767080D01*
X655320Y701040D02*
X767080D01*
X619760Y543560D02*
Y701040D01*
X650240Y543560D02*
Y701040D01*
X619760D02*
X650240D01*
X619760Y543560D02*
X650240D01*
X772160D02*
Y701040D01*
X802640Y543560D02*
Y701040D01*
X772160D02*
X802640D01*
X772160Y543560D02*
X802640D01*
X171450Y184150D02*
Y190500D01*
X184150Y139700D02*
Y146050D01*
X171450Y190500D02*
X177800D01*
Y139700D02*
X184150D01*
X144780Y165100D02*
X185420D01*
X152400Y139700D02*
Y190500D01*
X177800Y165100D01*
X152400Y139700D02*
X177800Y165100D01*
Y139700D02*
Y190500D01*
X755650Y196850D02*
Y203200D01*
X768350Y152400D02*
Y158750D01*
X755650Y203200D02*
X762000D01*
Y152400D02*
X768350D01*
X728980Y177800D02*
X769620D01*
X736600Y152400D02*
Y203200D01*
X762000Y177800D01*
X736600Y152400D02*
X762000Y177800D01*
Y152400D02*
Y203200D01*
X411475Y251462D02*
Y256541D01*
X408936Y259080D01*
X398779D01*
X396240Y256541D01*
Y251462D01*
X398779Y248923D01*
X408936D01*
X411475Y251462D01*
Y243845D02*
X398779D01*
X396240Y241306D01*
Y236227D01*
X398779Y233688D01*
X411475D01*
Y228610D02*
Y218453D01*
Y223531D01*
X396240D01*
X876295Y254000D02*
Y248922D01*
Y251461D01*
X861060D01*
Y254000D01*
Y248922D01*
Y241304D02*
X876295D01*
X861060Y231147D01*
X876295D01*
X408940Y152402D02*
X398783D01*
X403862Y147323D02*
Y157480D01*
X401320Y335280D02*
Y325123D01*
X866140Y335280D02*
Y325123D01*
X871220Y152402D02*
X861063D01*
X866141Y147323D02*
Y157480D01*
X375920Y723900D02*
Y739135D01*
X383537D01*
X386077Y736596D01*
Y731517D01*
X383537Y728978D01*
X375920D01*
X380998D02*
X386077Y723900D01*
X398773Y739135D02*
X393694D01*
X391155Y736596D01*
Y726439D01*
X393694Y723900D01*
X398773D01*
X401312Y726439D01*
Y736596D01*
X398773Y739135D01*
X406390D02*
Y723900D01*
X414008D01*
X416547Y726439D01*
Y728978D01*
X414008Y731517D01*
X406390D01*
X414008D01*
X416547Y734057D01*
Y736596D01*
X414008Y739135D01*
X406390D01*
X429243D02*
X424164D01*
X421625Y736596D01*
Y726439D01*
X424164Y723900D01*
X429243D01*
X431782Y726439D01*
Y736596D01*
X429243Y739135D01*
X436860Y731517D02*
X447017D01*
X452095Y739135D02*
Y723900D01*
Y731517D01*
X462252D01*
Y739135D01*
Y723900D01*
X467330D02*
Y734057D01*
X472409Y739135D01*
X477487Y734057D01*
Y723900D01*
Y731517D01*
X467330D01*
X482565Y723900D02*
Y739135D01*
X492722Y723900D01*
Y739135D01*
X497801D02*
Y723900D01*
X505418D01*
X507957Y726439D01*
Y736596D01*
X505418Y739135D01*
X497801D01*
X528271Y734057D02*
X533349Y723900D01*
X538427Y734057D01*
X543506Y723900D02*
Y726439D01*
X546045D01*
Y723900D01*
X543506D01*
X556202D02*
X561280D01*
X558741D01*
Y739135D01*
X556202Y736596D01*
X568898Y723900D02*
Y726439D01*
X571437D01*
Y723900D01*
X568898D01*
X581594Y736596D02*
X584133Y739135D01*
X589211D01*
X591750Y736596D01*
Y726439D01*
X589211Y723900D01*
X584133D01*
X581594Y726439D01*
Y736596D01*
X274320Y139698D02*
X284477D01*
X279398Y144777D02*
Y134620D01*
X279400Y172720D02*
Y182877D01*
X274325Y203200D02*
Y208278D01*
Y205739D01*
X289560D01*
Y203200D01*
Y208278D01*
Y215896D02*
X274325D01*
X289560Y226053D01*
X274325D01*
X50800Y134620D02*
Y144777D01*
X45720Y215898D02*
X55877D01*
X50798Y220977D02*
Y210820D01*
X40645Y167638D02*
Y162559D01*
X43184Y160020D01*
X53341D01*
X55880Y162559D01*
Y167638D01*
X53341Y170177D01*
X43184D01*
X40645Y167638D01*
Y175255D02*
X53341D01*
X55880Y177794D01*
Y182873D01*
X53341Y185412D01*
X40645D01*
Y190490D02*
Y200647D01*
Y195569D01*
X55880D01*
X160020Y688335D02*
Y675639D01*
X162559Y673100D01*
X167638D01*
X170177Y675639D01*
Y688335D01*
X185412Y685796D02*
X182873Y688335D01*
X177794D01*
X175255Y685796D01*
Y683257D01*
X177794Y680717D01*
X182873D01*
X185412Y678178D01*
Y675639D01*
X182873Y673100D01*
X177794D01*
X175255Y675639D01*
X190490Y688335D02*
Y673100D01*
X198108D01*
X200647Y675639D01*
Y678178D01*
X198108Y680717D01*
X190490D01*
X198108D01*
X200647Y683257D01*
Y685796D01*
X198108Y688335D01*
X190490D01*
X276860Y312415D02*
X287017D01*
X281938D01*
Y297180D01*
X292095Y312415D02*
X302252Y297180D01*
Y312415D02*
X292095Y297180D01*
X307330D02*
X312409D01*
X309869D01*
Y312415D01*
X307330Y309876D01*
X276860Y322580D02*
Y337815D01*
X284478D01*
X287017Y335276D01*
Y330197D01*
X284478Y327658D01*
X276860D01*
X281938D02*
X287017Y322580D01*
X292095Y337815D02*
X302252Y322580D01*
Y337815D02*
X292095Y322580D01*
X307330Y335276D02*
X309869Y337815D01*
X314948D01*
X317487Y335276D01*
Y325119D01*
X314948Y322580D01*
X309869D01*
X307330Y325119D01*
Y335276D01*
X276860Y347980D02*
Y363215D01*
X284478D01*
X287017Y360676D01*
Y355597D01*
X284478Y353058D01*
X276860D01*
X281938D02*
X287017Y347980D01*
X302252Y360676D02*
X299713Y363215D01*
X294634D01*
X292095Y360676D01*
Y358137D01*
X294634Y355597D01*
X299713D01*
X302252Y353058D01*
Y350519D01*
X299713Y347980D01*
X294634D01*
X292095Y350519D01*
X307330Y363215D02*
X317487D01*
X312409D01*
Y347980D01*
X287017Y386076D02*
X284478Y388615D01*
X279399D01*
X276860Y386076D01*
Y375919D01*
X279399Y373380D01*
X284478D01*
X287017Y375919D01*
Y380998D01*
X281938D01*
X292095Y373380D02*
Y388615D01*
X302252Y373380D01*
Y388615D01*
X307330D02*
Y373380D01*
X314948D01*
X317487Y375919D01*
Y386076D01*
X314948Y388615D01*
X307330D01*
X276860Y414015D02*
Y398780D01*
X284478D01*
X287017Y401319D01*
Y411476D01*
X284478Y414015D01*
X276860D01*
X302252Y398780D02*
X292095D01*
X302252Y408937D01*
Y411476D01*
X299713Y414015D01*
X294634D01*
X292095Y411476D01*
X276860Y439415D02*
Y424180D01*
X284478D01*
X287017Y426719D01*
Y436876D01*
X284478Y439415D01*
X276860D01*
X292095Y436876D02*
X294634Y439415D01*
X299713D01*
X302252Y436876D01*
Y434337D01*
X299713Y431797D01*
X297173D01*
X299713D01*
X302252Y429258D01*
Y426719D01*
X299713Y424180D01*
X294634D01*
X292095Y426719D01*
X276860Y464815D02*
Y449580D01*
X284478D01*
X287017Y452119D01*
Y462276D01*
X284478Y464815D01*
X276860D01*
X299713Y449580D02*
Y464815D01*
X292095Y457197D01*
X302252D01*
X276860Y490215D02*
Y474980D01*
X284478D01*
X287017Y477519D01*
Y487676D01*
X284478Y490215D01*
X276860D01*
X302252D02*
X292095D01*
Y482598D01*
X297173Y485137D01*
X299713D01*
X302252Y482598D01*
Y477519D01*
X299713Y474980D01*
X294634D01*
X292095Y477519D01*
X276860Y515615D02*
Y500380D01*
X284478D01*
X287017Y502919D01*
Y513076D01*
X284478Y515615D01*
X276860D01*
X302252D02*
X297173Y513076D01*
X292095Y507998D01*
Y502919D01*
X294634Y500380D01*
X299713D01*
X302252Y502919D01*
Y505458D01*
X299713Y507998D01*
X292095D01*
X276860Y541015D02*
Y525780D01*
X284478D01*
X287017Y528319D01*
Y538476D01*
X284478Y541015D01*
X276860D01*
X292095D02*
X302252D01*
Y538476D01*
X292095Y528319D01*
Y525780D01*
X276860Y566415D02*
Y551180D01*
X284478D01*
X287017Y553719D01*
Y563876D01*
X284478Y566415D01*
X276860D01*
X292095Y563876D02*
X294634Y566415D01*
X299713D01*
X302252Y563876D01*
Y561337D01*
X299713Y558797D01*
X302252Y556258D01*
Y553719D01*
X299713Y551180D01*
X294634D01*
X292095Y553719D01*
Y556258D01*
X294634Y558797D01*
X292095Y561337D01*
Y563876D01*
X294634Y558797D02*
X299713D01*
X276860Y591815D02*
Y576580D01*
X284478D01*
X287017Y579119D01*
Y589276D01*
X284478Y591815D01*
X276860D01*
X292095Y579119D02*
X294634Y576580D01*
X299713D01*
X302252Y579119D01*
Y589276D01*
X299713Y591815D01*
X294634D01*
X292095Y589276D01*
Y586737D01*
X294634Y584198D01*
X302252D01*
X276860Y617215D02*
Y601980D01*
X284478D01*
X287017Y604519D01*
Y614676D01*
X284478Y617215D01*
X276860D01*
X292095Y601980D02*
X297173D01*
X294634D01*
Y617215D01*
X292095Y614676D01*
X304791D02*
X307330Y617215D01*
X312409D01*
X314948Y614676D01*
Y604519D01*
X312409Y601980D01*
X307330D01*
X304791Y604519D01*
Y614676D01*
X276860Y642615D02*
Y627380D01*
X284478D01*
X287017Y629919D01*
Y640076D01*
X284478Y642615D01*
X276860D01*
X292095Y627380D02*
X297173D01*
X294634D01*
Y642615D01*
X292095Y640076D01*
X304791Y627380D02*
X309869D01*
X307330D01*
Y642615D01*
X304791Y640076D01*
X276860Y668015D02*
Y652780D01*
X284478D01*
X287017Y655319D01*
Y665476D01*
X284478Y668015D01*
X276860D01*
X292095Y652780D02*
X297173D01*
X294634D01*
Y668015D01*
X292095Y665476D01*
X314948Y652780D02*
X304791D01*
X314948Y662937D01*
Y665476D01*
X312409Y668015D01*
X307330D01*
X304791Y665476D01*
X38100Y312415D02*
Y302258D01*
X43178Y297180D01*
X48257Y302258D01*
Y312415D01*
X53335D02*
X58413D01*
X55874D01*
Y297180D01*
X53335D01*
X58413D01*
X66031D02*
Y312415D01*
X76188Y297180D01*
Y312415D01*
X48257Y335276D02*
X45718Y337815D01*
X40639D01*
X38100Y335276D01*
Y325119D01*
X40639Y322580D01*
X45718D01*
X48257Y325119D01*
Y330197D01*
X43178D01*
X53335Y322580D02*
Y337815D01*
X63492Y322580D01*
Y337815D01*
X68570D02*
Y322580D01*
X76188D01*
X78727Y325119D01*
Y335276D01*
X76188Y337815D01*
X68570D01*
X38100Y347980D02*
Y363215D01*
X45718D01*
X48257Y360676D01*
Y355597D01*
X45718Y353058D01*
X38100D01*
X43178D02*
X48257Y347980D01*
X63492Y360676D02*
X60953Y363215D01*
X55874D01*
X53335Y360676D01*
Y358137D01*
X55874Y355597D01*
X60953D01*
X63492Y353058D01*
Y350519D01*
X60953Y347980D01*
X55874D01*
X53335Y350519D01*
X68570Y363215D02*
X78727D01*
X73649D01*
Y347980D01*
X38100Y380998D02*
X48257D01*
X43178Y386076D02*
Y375919D01*
X63492Y388615D02*
X53335D01*
Y380998D01*
X58413Y383537D01*
X60953D01*
X63492Y380998D01*
Y375919D01*
X60953Y373380D01*
X55874D01*
X53335Y375919D01*
X68570Y388615D02*
Y378458D01*
X73649Y373380D01*
X78727Y378458D01*
Y388615D01*
X53340Y398780D02*
Y408937D01*
X58418Y414015D01*
X63497Y408937D01*
Y398780D01*
Y406398D01*
X53340D01*
X68575Y414015D02*
X78732D01*
Y411476D01*
X68575Y401319D01*
Y398780D01*
X53340Y424180D02*
Y434337D01*
X58418Y439415D01*
X63497Y434337D01*
Y424180D01*
Y431797D01*
X53340D01*
X78732Y439415D02*
X73653Y436876D01*
X68575Y431797D01*
Y426719D01*
X71114Y424180D01*
X76193D01*
X78732Y426719D01*
Y429258D01*
X76193Y431797D01*
X68575D01*
X53340Y449580D02*
Y459737D01*
X58418Y464815D01*
X63497Y459737D01*
Y449580D01*
Y457197D01*
X53340D01*
X78732Y464815D02*
X68575D01*
Y457197D01*
X73653Y459737D01*
X76193D01*
X78732Y457197D01*
Y452119D01*
X76193Y449580D01*
X71114D01*
X68575Y452119D01*
X53340Y474980D02*
Y485137D01*
X58418Y490215D01*
X63497Y485137D01*
Y474980D01*
Y482598D01*
X53340D01*
X76193Y474980D02*
Y490215D01*
X68575Y482598D01*
X78732D01*
X53340Y500380D02*
Y510537D01*
X58418Y515615D01*
X63497Y510537D01*
Y500380D01*
Y507998D01*
X53340D01*
X68575Y513076D02*
X71114Y515615D01*
X76193D01*
X78732Y513076D01*
Y510537D01*
X76193Y507998D01*
X73653D01*
X76193D01*
X78732Y505458D01*
Y502919D01*
X76193Y500380D01*
X71114D01*
X68575Y502919D01*
X53340Y525780D02*
Y535937D01*
X58418Y541015D01*
X63497Y535937D01*
Y525780D01*
Y533397D01*
X53340D01*
X78732Y525780D02*
X68575D01*
X78732Y535937D01*
Y538476D01*
X76193Y541015D01*
X71114D01*
X68575Y538476D01*
X53340Y551180D02*
Y561337D01*
X58418Y566415D01*
X63497Y561337D01*
Y551180D01*
Y558797D01*
X53340D01*
X68575Y551180D02*
X73653D01*
X71114D01*
Y566415D01*
X68575Y563876D01*
X53340Y576580D02*
Y586737D01*
X58418Y591815D01*
X63497Y586737D01*
Y576580D01*
Y584198D01*
X53340D01*
X68575Y589276D02*
X71114Y591815D01*
X76193D01*
X78732Y589276D01*
Y579119D01*
X76193Y576580D01*
X71114D01*
X68575Y579119D01*
Y589276D01*
X22860Y601980D02*
Y612137D01*
X27938Y617215D01*
X33017Y612137D01*
Y601980D01*
Y609598D01*
X22860D01*
X38095Y601980D02*
Y617215D01*
X45713D01*
X48252Y614676D01*
Y609598D01*
X45713Y607058D01*
X38095D01*
X43173D02*
X48252Y601980D01*
X63487Y617215D02*
X53330D01*
Y601980D01*
X63487D01*
X53330Y609598D02*
X58408D01*
X78722Y617215D02*
X68565D01*
Y609598D01*
X73644D01*
X68565D01*
Y601980D01*
X10160Y634997D02*
X20317D01*
X15238Y640076D02*
Y629919D01*
X25395Y640076D02*
X27934Y642615D01*
X33013D01*
X35552Y640076D01*
Y637537D01*
X33013Y634997D01*
X30473D01*
X33013D01*
X35552Y632458D01*
Y629919D01*
X33013Y627380D01*
X27934D01*
X25395Y629919D01*
X40630Y627380D02*
Y629919D01*
X43169D01*
Y627380D01*
X40630D01*
X53326Y640076D02*
X55865Y642615D01*
X60944D01*
X63483Y640076D01*
Y637537D01*
X60944Y634997D01*
X58404D01*
X60944D01*
X63483Y632458D01*
Y629919D01*
X60944Y627380D01*
X55865D01*
X53326Y629919D01*
X68561Y642615D02*
Y632458D01*
X73639Y627380D01*
X78718Y632458D01*
Y642615D01*
X40640Y668015D02*
Y652780D01*
X48257D01*
X50797Y655319D01*
Y665476D01*
X48257Y668015D01*
X40640D01*
X55875Y652780D02*
X60953D01*
X58414D01*
Y668015D01*
X55875Y665476D01*
X68571D02*
X71110Y668015D01*
X76189D01*
X78728Y665476D01*
Y662937D01*
X76189Y660397D01*
X73649D01*
X76189D01*
X78728Y657858D01*
Y655319D01*
X76189Y652780D01*
X71110D01*
X68571Y655319D01*
X541023Y411481D02*
Y401324D01*
X543562Y398785D01*
X548641D01*
X551180Y401324D01*
Y411481D01*
X548641Y414020D01*
X543562D01*
X546101Y408942D02*
X541023Y414020D01*
X543562D02*
X541023Y411481D01*
X535945Y414020D02*
X530866D01*
X533405D01*
Y398785D01*
X535945Y401324D01*
X541023Y436881D02*
Y426724D01*
X543562Y424185D01*
X548641D01*
X551180Y426724D01*
Y436881D01*
X548641Y439420D01*
X543562D01*
X546101Y434342D02*
X541023Y439420D01*
X543562D02*
X541023Y436881D01*
X525788Y439420D02*
X535945D01*
X525788Y429263D01*
Y426724D01*
X528327Y424185D01*
X533405D01*
X535945Y426724D01*
X541023Y462281D02*
Y452124D01*
X543562Y449585D01*
X548641D01*
X551180Y452124D01*
Y462281D01*
X548641Y464820D01*
X543562D01*
X546101Y459742D02*
X541023Y464820D01*
X543562D02*
X541023Y462281D01*
X535945Y452124D02*
X533405Y449585D01*
X528327D01*
X525788Y452124D01*
Y454663D01*
X528327Y457202D01*
X530866D01*
X528327D01*
X525788Y459742D01*
Y462281D01*
X528327Y464820D01*
X533405D01*
X535945Y462281D01*
X541023Y487681D02*
Y477524D01*
X543562Y474985D01*
X548641D01*
X551180Y477524D01*
Y487681D01*
X548641Y490220D01*
X543562D01*
X546101Y485142D02*
X541023Y490220D01*
X543562D02*
X541023Y487681D01*
X528327Y490220D02*
Y474985D01*
X535945Y482603D01*
X525788D01*
X541023Y513081D02*
Y502924D01*
X543562Y500385D01*
X548641D01*
X551180Y502924D01*
Y513081D01*
X548641Y515620D01*
X543562D01*
X546101Y510542D02*
X541023Y515620D01*
X543562D02*
X541023Y513081D01*
X525788Y500385D02*
X535945D01*
Y508003D01*
X530866Y505463D01*
X528327D01*
X525788Y508003D01*
Y513081D01*
X528327Y515620D01*
X533405D01*
X535945Y513081D01*
X541023Y538481D02*
Y528324D01*
X543562Y525785D01*
X548641D01*
X551180Y528324D01*
Y538481D01*
X548641Y541020D01*
X543562D01*
X546101Y535942D02*
X541023Y541020D01*
X543562D02*
X541023Y538481D01*
X525788Y525785D02*
X530866Y528324D01*
X535945Y533402D01*
Y538481D01*
X533405Y541020D01*
X528327D01*
X525788Y538481D01*
Y535942D01*
X528327Y533402D01*
X535945D01*
X541023Y563881D02*
Y553724D01*
X543562Y551185D01*
X548641D01*
X551180Y553724D01*
Y563881D01*
X548641Y566420D01*
X543562D01*
X546101Y561342D02*
X541023Y566420D01*
X543562D02*
X541023Y563881D01*
X535945Y551185D02*
X525788D01*
Y553724D01*
X535945Y563881D01*
Y566420D01*
X556263Y579124D02*
X558802Y576585D01*
X563881D01*
X566420Y579124D01*
Y589281D01*
X563881Y591820D01*
X558802D01*
X556263Y589281D01*
Y584202D01*
X561341D01*
X551185Y591820D02*
Y576585D01*
X541028Y591820D01*
Y576585D01*
X535950D02*
Y591820D01*
X528332D01*
X525793Y589281D01*
Y579124D01*
X528332Y576585D01*
X535950D01*
X411480Y398785D02*
Y408942D01*
X406402Y414020D01*
X401323Y408942D01*
Y398785D01*
X386088Y401324D02*
X388628Y398785D01*
X393706D01*
X396245Y401324D01*
Y411481D01*
X393706Y414020D01*
X388628D01*
X386088Y411481D01*
X370853Y401324D02*
X373392Y398785D01*
X378471D01*
X381010Y401324D01*
Y411481D01*
X378471Y414020D01*
X373392D01*
X370853Y411481D01*
X401323Y436881D02*
Y426724D01*
X403863Y424185D01*
X408941D01*
X411480Y426724D01*
Y436881D01*
X408941Y439420D01*
X403863D01*
X406402Y434342D02*
X401323Y439420D01*
X403863D02*
X401323Y436881D01*
X396245Y426724D02*
X393706Y424185D01*
X388628D01*
X386088Y426724D01*
Y436881D01*
X388628Y439420D01*
X393706D01*
X396245Y436881D01*
Y426724D01*
X411480Y449585D02*
Y464820D01*
X403863D01*
X401323Y462281D01*
Y452124D01*
X403863Y449585D01*
X411480D01*
X386088Y452124D02*
X388628Y449585D01*
X393706D01*
X396245Y452124D01*
Y454663D01*
X393706Y457202D01*
X388628D01*
X386088Y459742D01*
Y462281D01*
X388628Y464820D01*
X393706D01*
X396245Y462281D01*
X403863Y474985D02*
X408941D01*
X411480Y477524D01*
Y487681D01*
X408941Y490220D01*
X403863D01*
X401323Y487681D01*
Y477524D01*
X403863Y474985D01*
X386088D02*
X396245D01*
Y490220D01*
X386088D01*
X396245Y482603D02*
X391167D01*
X401323Y502925D02*
X403863Y500386D01*
X408941D01*
X411480Y502925D01*
Y505464D01*
X408941Y508003D01*
X403863D01*
X401323Y510542D01*
Y513082D01*
X403863Y515621D01*
X408941D01*
X411480Y513082D01*
X396245Y500386D02*
X386088D01*
X391167D01*
Y515621D01*
X381010Y518160D02*
X370853D01*
X355618Y502925D02*
X358157Y500386D01*
X363236D01*
X365775Y502925D01*
Y513082D01*
X363236Y515621D01*
X358157D01*
X355618Y513082D01*
X350540Y515621D02*
Y500386D01*
X342922D01*
X340383Y502925D01*
Y508003D01*
X342922Y510542D01*
X350540D01*
X401323Y528325D02*
X403863Y525786D01*
X408941D01*
X411480Y528325D01*
Y530864D01*
X408941Y533403D01*
X403863D01*
X401323Y535942D01*
Y538482D01*
X403863Y541021D01*
X408941D01*
X411480Y538482D01*
X396245Y525786D02*
Y541021D01*
Y533403D01*
X386088D01*
Y525786D01*
Y541021D01*
X381010Y543560D02*
X370853D01*
X355618Y528325D02*
X358157Y525786D01*
X363236D01*
X365775Y528325D01*
Y538482D01*
X363236Y541021D01*
X358157D01*
X355618Y538482D01*
X350540Y541021D02*
Y525786D01*
X342922D01*
X340383Y528325D01*
Y533403D01*
X342922Y535942D01*
X350540D01*
X411480Y566420D02*
Y551185D01*
X406402Y556263D01*
X401323Y551185D01*
Y566420D01*
X396245D02*
Y551185D01*
X388628D01*
X386088Y553724D01*
Y558802D01*
X388628Y561342D01*
X396245D01*
X391167D02*
X386088Y566420D01*
X401323Y589281D02*
Y579124D01*
X403862Y576585D01*
X408941D01*
X411480Y579124D01*
Y589281D01*
X408941Y591820D01*
X403862D01*
X406402Y586742D02*
X401323Y591820D01*
X403862D02*
X401323Y589281D01*
X396245Y576585D02*
X386088D01*
Y579124D01*
X396245Y589281D01*
Y591820D01*
X378471Y574046D02*
Y579124D01*
X381010Y581663D01*
X820417Y388615D02*
X810260D01*
Y380998D01*
X815338D01*
X810260D01*
Y373380D01*
X825495D02*
Y383537D01*
X830573Y388615D01*
X835652Y383537D01*
Y373380D01*
Y380998D01*
X825495D01*
X840730Y388615D02*
Y375919D01*
X843269Y373380D01*
X848348D01*
X850887Y375919D01*
Y388615D01*
X855965D02*
Y373380D01*
X866122D01*
X871200Y388615D02*
X881357D01*
X876279D01*
Y373380D01*
X817878Y414015D02*
X812799D01*
X810260Y411476D01*
Y401319D01*
X812799Y398780D01*
X817878D01*
X820417Y401319D01*
Y411476D01*
X817878Y414015D01*
X825495D02*
Y401319D01*
X828034Y398780D01*
X833113D01*
X835652Y401319D01*
Y414015D01*
X840730D02*
X850887D01*
X845808D01*
Y398780D01*
X863583D02*
Y414015D01*
X855965Y406398D01*
X866122D01*
X817878Y439415D02*
X812799D01*
X810260Y436876D01*
Y426719D01*
X812799Y424180D01*
X817878D01*
X820417Y426719D01*
Y436876D01*
X817878Y439415D01*
X825495D02*
Y426719D01*
X828034Y424180D01*
X833113D01*
X835652Y426719D01*
Y439415D01*
X840730D02*
X850887D01*
X845808D01*
Y424180D01*
X855965Y436876D02*
X858504Y439415D01*
X863583D01*
X866122Y436876D01*
Y434337D01*
X863583Y431797D01*
X861044D01*
X863583D01*
X866122Y429258D01*
Y426719D01*
X863583Y424180D01*
X858504D01*
X855965Y426719D01*
X817878Y464815D02*
X812799D01*
X810260Y462276D01*
Y452119D01*
X812799Y449580D01*
X817878D01*
X820417Y452119D01*
Y462276D01*
X817878Y464815D01*
X825495D02*
Y452119D01*
X828034Y449580D01*
X833113D01*
X835652Y452119D01*
Y464815D01*
X840730D02*
X850887D01*
X845808D01*
Y449580D01*
X866122D02*
X855965D01*
X866122Y459737D01*
Y462276D01*
X863583Y464815D01*
X858504D01*
X855965Y462276D01*
X817878Y490215D02*
X812799D01*
X810260Y487676D01*
Y477519D01*
X812799Y474980D01*
X817878D01*
X820417Y477519D01*
Y487676D01*
X817878Y490215D01*
X825495D02*
Y477519D01*
X828034Y474980D01*
X833113D01*
X835652Y477519D01*
Y490215D01*
X840730D02*
X850887D01*
X845808D01*
Y474980D01*
X855965D02*
X861044D01*
X858504D01*
Y490215D01*
X855965Y487676D01*
X820417Y513076D02*
X817878Y515615D01*
X812799D01*
X810260Y513076D01*
Y510537D01*
X812799Y507998D01*
X817878D01*
X820417Y505458D01*
Y502919D01*
X817878Y500380D01*
X812799D01*
X810260Y502919D01*
X825495Y515615D02*
Y500380D01*
X835652D01*
X850887Y515615D02*
X840730D01*
Y500380D01*
X850887D01*
X840730Y507998D02*
X845808D01*
X866122Y515615D02*
X855965D01*
Y500380D01*
X866122D01*
X855965Y507998D02*
X861044D01*
X871200Y500380D02*
Y515615D01*
X878818D01*
X881357Y513076D01*
Y507998D01*
X878818Y505458D01*
X871200D01*
X576580Y515615D02*
X581658D01*
X579119D01*
Y500380D01*
X576580D01*
X581658D01*
X589276D02*
Y515615D01*
X599433Y500380D01*
Y515615D01*
X612128Y500380D02*
Y515615D01*
X604511Y507998D01*
X614668D01*
X576580Y490215D02*
X581658D01*
X579119D01*
Y474980D01*
X576580D01*
X581658D01*
X589276D02*
Y490215D01*
X599433Y474980D01*
Y490215D01*
X604511Y487676D02*
X607050Y490215D01*
X612128D01*
X614668Y487676D01*
Y485137D01*
X612128Y482598D01*
X609589D01*
X612128D01*
X614668Y480058D01*
Y477519D01*
X612128Y474980D01*
X607050D01*
X604511Y477519D01*
X584197Y462276D02*
X581657Y464815D01*
X576579D01*
X574040Y462276D01*
Y452119D01*
X576579Y449580D01*
X581657D01*
X584197Y452119D01*
Y457197D01*
X579118D01*
X589275Y449580D02*
Y464815D01*
X599432Y449580D01*
Y464815D01*
X604510D02*
Y449580D01*
X612128D01*
X614667Y452119D01*
Y462276D01*
X612128Y464815D01*
X604510D01*
X574040Y439415D02*
Y429258D01*
X579118Y424180D01*
X584197Y429258D01*
Y439415D01*
X599432Y436876D02*
X596893Y439415D01*
X591814D01*
X589275Y436876D01*
Y426719D01*
X591814Y424180D01*
X596893D01*
X599432Y426719D01*
X614667Y436876D02*
X612128Y439415D01*
X607049D01*
X604510Y436876D01*
Y426719D01*
X607049Y424180D01*
X612128D01*
X614667Y426719D01*
X576580Y414015D02*
X581658D01*
X579119D01*
Y398780D01*
X576580D01*
X581658D01*
X589276D02*
Y414015D01*
X599433Y398780D01*
Y414015D01*
X614668Y398780D02*
X604511D01*
X614668Y408937D01*
Y411476D01*
X612128Y414015D01*
X607050D01*
X604511Y411476D01*
X576580Y388615D02*
X581658D01*
X579119D01*
Y373380D01*
X576580D01*
X581658D01*
X589276D02*
Y388615D01*
X599433Y373380D01*
Y388615D01*
X604511Y373380D02*
X609589D01*
X607050D01*
Y388615D01*
X604511Y386076D01*
X820417Y566415D02*
X810260D01*
Y558797D01*
X815338D01*
X810260D01*
Y551180D01*
X825495D02*
Y561337D01*
X830573Y566415D01*
X835652Y561337D01*
Y551180D01*
Y558797D01*
X825495D01*
X840730Y566415D02*
Y553719D01*
X843269Y551180D01*
X848348D01*
X850887Y553719D01*
Y566415D01*
X855965D02*
Y551180D01*
X866122D01*
X871200Y566415D02*
X881357D01*
X876279D01*
Y551180D01*
X817878Y591815D02*
X812799D01*
X810260Y589276D01*
Y579119D01*
X812799Y576580D01*
X817878D01*
X820417Y579119D01*
Y589276D01*
X817878Y591815D01*
X825495D02*
Y579119D01*
X828034Y576580D01*
X833113D01*
X835652Y579119D01*
Y591815D01*
X840730D02*
X850887D01*
X845808D01*
Y576580D01*
X863583D02*
Y591815D01*
X855965Y584198D01*
X866122D01*
X817878Y617215D02*
X812799D01*
X810260Y614676D01*
Y604519D01*
X812799Y601980D01*
X817878D01*
X820417Y604519D01*
Y614676D01*
X817878Y617215D01*
X825495D02*
Y604519D01*
X828034Y601980D01*
X833113D01*
X835652Y604519D01*
Y617215D01*
X840730D02*
X850887D01*
X845808D01*
Y601980D01*
X855965Y614676D02*
X858504Y617215D01*
X863583D01*
X866122Y614676D01*
Y612137D01*
X863583Y609598D01*
X861044D01*
X863583D01*
X866122Y607058D01*
Y604519D01*
X863583Y601980D01*
X858504D01*
X855965Y604519D01*
X817878Y642615D02*
X812799D01*
X810260Y640076D01*
Y629919D01*
X812799Y627380D01*
X817878D01*
X820417Y629919D01*
Y640076D01*
X817878Y642615D01*
X825495D02*
Y629919D01*
X828034Y627380D01*
X833113D01*
X835652Y629919D01*
Y642615D01*
X840730D02*
X850887D01*
X845808D01*
Y627380D01*
X866122D02*
X855965D01*
X866122Y637537D01*
Y640076D01*
X863583Y642615D01*
X858504D01*
X855965Y640076D01*
X817878Y668015D02*
X812799D01*
X810260Y665476D01*
Y655319D01*
X812799Y652780D01*
X817878D01*
X820417Y655319D01*
Y665476D01*
X817878Y668015D01*
X825495D02*
Y655319D01*
X828034Y652780D01*
X833113D01*
X835652Y655319D01*
Y668015D01*
X840730D02*
X850887D01*
X845808D01*
Y652780D01*
X855965D02*
X861044D01*
X858504D01*
Y668015D01*
X855965Y665476D01*
X820417Y690876D02*
X817878Y693415D01*
X812799D01*
X810260Y690876D01*
Y688337D01*
X812799Y685798D01*
X817878D01*
X820417Y683258D01*
Y680719D01*
X817878Y678180D01*
X812799D01*
X810260Y680719D01*
X825495Y693415D02*
Y678180D01*
X835652D01*
X850887Y693415D02*
X840730D01*
Y678180D01*
X850887D01*
X840730Y685798D02*
X845808D01*
X866122Y693415D02*
X855965D01*
Y678180D01*
X866122D01*
X855965Y685798D02*
X861044D01*
X871200Y678180D02*
Y693415D01*
X878818D01*
X881357Y690876D01*
Y685798D01*
X878818Y683258D01*
X871200D01*
X576580Y693415D02*
X581658D01*
X579119D01*
Y678180D01*
X576580D01*
X581658D01*
X589276D02*
Y693415D01*
X599433Y678180D01*
Y693415D01*
X612128Y678180D02*
Y693415D01*
X604511Y685798D01*
X614668D01*
X576580Y668015D02*
X581658D01*
X579119D01*
Y652780D01*
X576580D01*
X581658D01*
X589276D02*
Y668015D01*
X599433Y652780D01*
Y668015D01*
X604511Y665476D02*
X607050Y668015D01*
X612128D01*
X614668Y665476D01*
Y662937D01*
X612128Y660397D01*
X609589D01*
X612128D01*
X614668Y657858D01*
Y655319D01*
X612128Y652780D01*
X607050D01*
X604511Y655319D01*
X584197Y640076D02*
X581657Y642615D01*
X576579D01*
X574040Y640076D01*
Y629919D01*
X576579Y627380D01*
X581657D01*
X584197Y629919D01*
Y634997D01*
X579118D01*
X589275Y627380D02*
Y642615D01*
X599432Y627380D01*
Y642615D01*
X604510D02*
Y627380D01*
X612128D01*
X614667Y629919D01*
Y640076D01*
X612128Y642615D01*
X604510D01*
X574040Y617215D02*
Y607058D01*
X579118Y601980D01*
X584197Y607058D01*
Y617215D01*
X599432Y614676D02*
X596893Y617215D01*
X591814D01*
X589275Y614676D01*
Y604519D01*
X591814Y601980D01*
X596893D01*
X599432Y604519D01*
X614667Y614676D02*
X612128Y617215D01*
X607049D01*
X604510Y614676D01*
Y604519D01*
X607049Y601980D01*
X612128D01*
X614667Y604519D01*
X576580Y591815D02*
X581658D01*
X579119D01*
Y576580D01*
X576580D01*
X581658D01*
X589276D02*
Y591815D01*
X599433Y576580D01*
Y591815D01*
X614668Y576580D02*
X604511D01*
X614668Y586737D01*
Y589276D01*
X612128Y591815D01*
X607050D01*
X604511Y589276D01*
X576580Y566415D02*
X581658D01*
X579119D01*
Y551180D01*
X576580D01*
X581658D01*
X589276D02*
Y566415D01*
X599433Y551180D01*
Y566415D01*
X604511Y551180D02*
X609589D01*
X607050D01*
Y566415D01*
X604511Y563876D01*
X334772Y346456D02*
X339850D01*
X337311D01*
Y361691D01*
X334772Y359152D01*
X347468D02*
X350007Y361691D01*
X355085D01*
X357625Y359152D01*
Y348995D01*
X355085Y346456D01*
X350007D01*
X347468Y348995D01*
Y359152D01*
X362703D02*
X365242Y361691D01*
X370321D01*
X372860Y359152D01*
Y348995D01*
X370321Y346456D01*
X365242D01*
X362703Y348995D01*
Y359152D01*
X377938Y346456D02*
Y356613D01*
X385556D01*
X388095Y354073D01*
Y346456D01*
X403330Y361691D02*
X393173D01*
Y354073D01*
X398251D01*
X393173D01*
Y346456D01*
X598184Y248918D02*
Y233682D01*
X608341D01*
X613419D02*
Y248918D01*
X618497Y243839D01*
X623576Y248918D01*
Y233682D01*
X638811D02*
X628654D01*
X638811Y243839D01*
Y246378D01*
X636272Y248918D01*
X631193D01*
X628654Y246378D01*
X654046Y248918D02*
X643889D01*
Y241300D01*
X648968Y243839D01*
X651507D01*
X654046Y241300D01*
Y236222D01*
X651507Y233682D01*
X646428D01*
X643889Y236222D01*
X659124D02*
X661663Y233682D01*
X666742D01*
X669281Y236222D01*
Y246378D01*
X666742Y248918D01*
X661663D01*
X659124Y246378D01*
Y243839D01*
X661663Y241300D01*
X669281D01*
X684516Y248918D02*
X679438Y246378D01*
X674359Y241300D01*
Y236222D01*
X676898Y233682D01*
X681977D01*
X684516Y236222D01*
Y238761D01*
X681977Y241300D01*
X674359D01*
X193043Y81278D02*
X190504Y83818D01*
X185426D01*
X182887Y81278D01*
Y71122D01*
X185426Y68583D01*
X190504D01*
X193043Y71122D01*
Y76200D01*
X187965D01*
X198122Y68583D02*
Y83818D01*
X208278Y68583D01*
Y83818D01*
X213357D02*
Y68583D01*
X220974D01*
X223513Y71122D01*
Y81278D01*
X220974Y83818D01*
X213357D01*
X106687Y76200D02*
X116843D01*
X111765Y81278D02*
Y71122D01*
X129539Y68583D02*
Y83818D01*
X121922Y76200D01*
X132078D01*
X137157Y83818D02*
Y73661D01*
X142235Y68583D01*
X147313Y73661D01*
Y83818D01*
X906781Y401322D02*
Y411478D01*
X904242Y414017D01*
X899163D01*
X896624Y411478D01*
Y401322D01*
X899163Y398783D01*
X904242D01*
X901702Y403861D02*
X906781Y398783D01*
X904242D02*
X906781Y401322D01*
X922016Y414017D02*
X911859D01*
Y406400D01*
X916937Y408939D01*
X919477D01*
X922016Y406400D01*
Y401322D01*
X919477Y398783D01*
X914398D01*
X911859Y401322D01*
X906781Y426722D02*
Y436878D01*
X904242Y439417D01*
X899163D01*
X896624Y436878D01*
Y426722D01*
X899163Y424183D01*
X904242D01*
X901702Y429261D02*
X906781Y424183D01*
X904242D02*
X906781Y426722D01*
X919477Y424183D02*
Y439417D01*
X911859Y431800D01*
X922016D01*
X777243Y81278D02*
X774704Y83818D01*
X769626D01*
X767087Y81278D01*
Y71122D01*
X769626Y68583D01*
X774704D01*
X777243Y71122D01*
Y76200D01*
X772165D01*
X782322Y68583D02*
Y83818D01*
X792478Y68583D01*
Y83818D01*
X797557D02*
Y68583D01*
X805174D01*
X807713Y71122D01*
Y81278D01*
X805174Y83818D01*
X797557D01*
X684539Y76200D02*
X694695D01*
X689617Y81278D02*
Y71122D01*
X699774Y68583D02*
X704852D01*
X702313D01*
Y83818D01*
X699774Y81278D01*
X722626Y83818D02*
X717548Y81278D01*
X712470Y76200D01*
Y71122D01*
X715009Y68583D01*
X720087D01*
X722626Y71122D01*
Y73661D01*
X720087Y76200D01*
X712470D01*
X727705Y83818D02*
Y73661D01*
X732783Y68583D01*
X737861Y73661D01*
Y83818D01*
X906781Y477522D02*
Y487678D01*
X904242Y490218D01*
X899163D01*
X896624Y487678D01*
Y477522D01*
X899163Y474982D01*
X904242D01*
X901702Y480061D02*
X906781Y474982D01*
X904242D02*
X906781Y477522D01*
X911859Y487678D02*
X914398Y490218D01*
X919477D01*
X922016Y487678D01*
Y485139D01*
X919477Y482600D01*
X916937D01*
X919477D01*
X922016Y480061D01*
Y477522D01*
X919477Y474982D01*
X914398D01*
X911859Y477522D01*
X906781Y502922D02*
Y513078D01*
X904242Y515617D01*
X899163D01*
X896624Y513078D01*
Y502922D01*
X899163Y500382D01*
X904242D01*
X901702Y505461D02*
X906781Y500382D01*
X904242D02*
X906781Y502922D01*
X922016Y500382D02*
X911859D01*
X922016Y510539D01*
Y513078D01*
X919477Y515617D01*
X914398D01*
X911859Y513078D01*
X909320Y553722D02*
Y563878D01*
X906781Y566418D01*
X901702D01*
X899163Y563878D01*
Y553722D01*
X901702Y551183D01*
X906781D01*
X904242Y556261D02*
X909320Y551183D01*
X906781D02*
X909320Y553722D01*
X914398Y551183D02*
X919477D01*
X916938D01*
Y566418D01*
X914398Y563878D01*
X906781Y579122D02*
Y589278D01*
X904242Y591818D01*
X899163D01*
X896624Y589278D01*
Y579122D01*
X899163Y576582D01*
X904242D01*
X901702Y581661D02*
X906781Y576582D01*
X904242D02*
X906781Y579122D01*
X911859Y589278D02*
X914398Y591818D01*
X919477D01*
X922016Y589278D01*
Y579122D01*
X919477Y576582D01*
X914398D01*
X911859Y579122D01*
Y589278D01*
X147326Y220978D02*
X144787Y223517D01*
X139708D01*
X137169Y220978D01*
Y218439D01*
X139708Y215900D01*
X144787D01*
X147326Y213361D01*
Y210822D01*
X144787Y208283D01*
X139708D01*
X137169Y210822D01*
X162561Y220978D02*
X160022Y223517D01*
X154943D01*
X152404Y220978D01*
Y218439D01*
X154943Y215900D01*
X160022D01*
X162561Y213361D01*
Y210822D01*
X160022Y208283D01*
X154943D01*
X152404Y210822D01*
X167639Y220978D02*
X170178Y223517D01*
X175257D01*
X177796Y220978D01*
Y218439D01*
X175257Y215900D01*
X172717D01*
X175257D01*
X177796Y213361D01*
Y210822D01*
X175257Y208283D01*
X170178D01*
X167639Y210822D01*
X190492Y208283D02*
Y223517D01*
X182874Y215900D01*
X193031D01*
X727976Y233678D02*
X725437Y236217D01*
X720358D01*
X717819Y233678D01*
Y231139D01*
X720358Y228600D01*
X725437D01*
X727976Y226061D01*
Y223522D01*
X725437Y220982D01*
X720358D01*
X717819Y223522D01*
X743211Y233678D02*
X740672Y236217D01*
X735593D01*
X733054Y233678D01*
Y231139D01*
X735593Y228600D01*
X740672D01*
X743211Y226061D01*
Y223522D01*
X740672Y220982D01*
X735593D01*
X733054Y223522D01*
X748289Y233678D02*
X750828Y236217D01*
X755907D01*
X758446Y233678D01*
Y231139D01*
X755907Y228600D01*
X753367D01*
X755907D01*
X758446Y226061D01*
Y223522D01*
X755907Y220982D01*
X750828D01*
X748289Y223522D01*
X771142Y220982D02*
Y236217D01*
X763524Y228600D01*
X773681D01*
X706117Y448321D02*
Y453399D01*
Y450860D01*
X690882D01*
X693422Y448321D01*
Y461017D02*
X690882Y463556D01*
Y468634D01*
X693422Y471174D01*
X703578D01*
X706117Y468634D01*
Y463556D01*
X703578Y461017D01*
X693422D01*
Y476252D02*
X690882Y478791D01*
Y483870D01*
X693422Y486409D01*
X703578D01*
X706117Y483870D01*
Y478791D01*
X703578Y476252D01*
X693422D01*
X706117Y491487D02*
X695961D01*
Y499105D01*
X698500Y501644D01*
X706117D01*
X690882Y516879D02*
Y506722D01*
X698500D01*
Y511801D01*
Y506722D01*
X706117D01*
Y626121D02*
Y631199D01*
Y628660D01*
X690882D01*
X693422Y626121D01*
Y638817D02*
X690882Y641356D01*
Y646434D01*
X693422Y648974D01*
X703578D01*
X706117Y646434D01*
Y641356D01*
X703578Y638817D01*
X693422D01*
Y654052D02*
X690882Y656591D01*
Y661670D01*
X693422Y664209D01*
X703578D01*
X706117Y661670D01*
Y656591D01*
X703578Y654052D01*
X693422D01*
X706117Y669287D02*
X695961D01*
Y676905D01*
X698500Y679444D01*
X706117D01*
X690882Y694679D02*
Y684522D01*
X698500D01*
Y689601D01*
Y684522D01*
X706117D01*
X133360Y106678D02*
X130821Y109218D01*
X125743D01*
X123204Y106678D01*
Y104139D01*
X125743Y101600D01*
X130821D01*
X133360Y99061D01*
Y96522D01*
X130821Y93982D01*
X125743D01*
X123204Y96522D01*
X138439Y109218D02*
X148595Y93982D01*
Y109218D02*
X138439Y93982D01*
X153674D02*
X158752D01*
X156213D01*
Y109218D01*
X153674Y106678D01*
X166370D02*
X168909Y109218D01*
X173987D01*
X176526Y106678D01*
Y104139D01*
X173987Y101600D01*
X171448D01*
X173987D01*
X176526Y99061D01*
Y96522D01*
X173987Y93982D01*
X168909D01*
X166370Y96522D01*
X181605Y106678D02*
X184144Y109218D01*
X189222D01*
X191761Y106678D01*
Y96522D01*
X189222Y93982D01*
X184144D01*
X181605Y96522D01*
Y106678D01*
X196840D02*
X199379Y109218D01*
X204457D01*
X206996Y106678D01*
Y104139D01*
X204457Y101600D01*
X206996Y99061D01*
Y96522D01*
X204457Y93982D01*
X199379D01*
X196840Y96522D01*
Y99061D01*
X199379Y101600D01*
X196840Y104139D01*
Y106678D01*
X199379Y101600D02*
X204457D01*
X185417Y394998D02*
X175261D01*
X170182Y400077D01*
X175261Y405155D01*
X185417D01*
X177800D01*
Y394998D01*
X175261Y410233D02*
X185417D01*
X180339D01*
X177800Y412773D01*
X175261Y415312D01*
Y417851D01*
X170182Y435625D02*
X185417D01*
Y428008D01*
X182878Y425468D01*
X177800D01*
X175261Y428008D01*
Y435625D01*
Y440704D02*
X182878D01*
X185417Y443243D01*
Y450860D01*
X175261D01*
X185417Y455939D02*
Y461017D01*
Y458478D01*
X175261D01*
Y455939D01*
X185417Y468634D02*
X175261D01*
Y476252D01*
X177800Y478791D01*
X185417D01*
Y486409D02*
Y491487D01*
X182878Y494026D01*
X177800D01*
X175261Y491487D01*
Y486409D01*
X177800Y483870D01*
X182878D01*
X185417Y486409D01*
Y514340D02*
X170182D01*
X185417Y524496D01*
X170182D01*
X175261Y532114D02*
Y537192D01*
X177800Y539731D01*
X185417D01*
Y532114D01*
X182878Y529575D01*
X180339Y532114D01*
Y539731D01*
X185417Y544810D02*
X175261D01*
Y552427D01*
X177800Y554967D01*
X185417D01*
Y562584D02*
Y567663D01*
X182878Y570202D01*
X177800D01*
X175261Y567663D01*
Y562584D01*
X177800Y560045D01*
X182878D01*
X185417Y562584D01*
X462282Y450866D02*
Y461023D01*
X464822D01*
X474978Y450866D01*
X477518D01*
Y473719D02*
X462282D01*
X469900Y466101D01*
Y476258D01*
X462282Y481337D02*
X477518D01*
X469900D01*
Y491493D01*
X462282D01*
X477518D01*
X464822Y506728D02*
X462282Y504189D01*
Y499111D01*
X464822Y496572D01*
X474978D01*
X477518Y499111D01*
Y504189D01*
X474978Y506728D01*
X462282Y521963D02*
Y511807D01*
X469900D01*
X467361Y516885D01*
Y519424D01*
X469900Y521963D01*
X474978D01*
X477518Y519424D01*
Y514346D01*
X474978Y511807D01*
Y527042D02*
X477518Y529581D01*
Y534659D01*
X474978Y537198D01*
X464822D01*
X462282Y534659D01*
Y529581D01*
X464822Y527042D01*
X467361D01*
X469900Y529581D01*
Y537198D01*
X462282Y552434D02*
Y542277D01*
X469900D01*
X467361Y547355D01*
Y549894D01*
X469900Y552434D01*
X474978D01*
X477518Y549894D01*
Y544816D01*
X474978Y542277D01*
X741682Y393716D02*
X756917D01*
Y401334D01*
X754378Y403873D01*
X744222D01*
X741682Y401334D01*
Y393716D01*
X756917Y408951D02*
X741682D01*
Y416569D01*
X744222Y419108D01*
X749300D01*
X751839Y416569D01*
Y408951D01*
Y414030D02*
X756917Y419108D01*
X741682Y424187D02*
X751839D01*
X756917Y429265D01*
X751839Y434343D01*
X741682D01*
X744222Y439422D02*
X741682Y441961D01*
Y447039D01*
X744222Y449578D01*
X746761D01*
X749300Y447039D01*
X751839Y449578D01*
X754378D01*
X756917Y447039D01*
Y441961D01*
X754378Y439422D01*
X751839D01*
X749300Y441961D01*
X746761Y439422D01*
X744222D01*
X749300Y441961D02*
Y447039D01*
X744222Y454657D02*
X741682Y457196D01*
Y462274D01*
X744222Y464813D01*
X746761D01*
X749300Y462274D01*
X751839Y464813D01*
X754378D01*
X756917Y462274D01*
Y457196D01*
X754378Y454657D01*
X751839D01*
X749300Y457196D01*
X746761Y454657D01*
X744222D01*
X749300Y457196D02*
Y462274D01*
X744222Y469892D02*
X741682Y472431D01*
Y477509D01*
X744222Y480048D01*
X746761D01*
X749300Y477509D01*
Y474970D01*
Y477509D01*
X751839Y480048D01*
X754378D01*
X756917Y477509D01*
Y472431D01*
X754378Y469892D01*
X744222Y485127D02*
X741682Y487666D01*
Y492744D01*
X744222Y495284D01*
X746761D01*
X749300Y492744D01*
Y490205D01*
Y492744D01*
X751839Y495284D01*
X754378D01*
X756917Y492744D01*
Y487666D01*
X754378Y485127D01*
X741682Y571516D02*
X756917D01*
Y579134D01*
X754378Y581673D01*
X744222D01*
X741682Y579134D01*
Y571516D01*
X756917Y586752D02*
X741682D01*
Y594369D01*
X744222Y596908D01*
X749300D01*
X751839Y594369D01*
Y586752D01*
Y591830D02*
X756917Y596908D01*
X741682Y601987D02*
X751839D01*
X756917Y607065D01*
X751839Y612143D01*
X741682D01*
X744222Y617222D02*
X741682Y619761D01*
Y624839D01*
X744222Y627378D01*
X746761D01*
X749300Y624839D01*
X751839Y627378D01*
X754378D01*
X756917Y624839D01*
Y619761D01*
X754378Y617222D01*
X751839D01*
X749300Y619761D01*
X746761Y617222D01*
X744222D01*
X749300Y619761D02*
Y624839D01*
X744222Y632457D02*
X741682Y634996D01*
Y640074D01*
X744222Y642613D01*
X746761D01*
X749300Y640074D01*
X751839Y642613D01*
X754378D01*
X756917Y640074D01*
Y634996D01*
X754378Y632457D01*
X751839D01*
X749300Y634996D01*
X746761Y632457D01*
X744222D01*
X749300Y634996D02*
Y640074D01*
X744222Y647692D02*
X741682Y650231D01*
Y655309D01*
X744222Y657849D01*
X746761D01*
X749300Y655309D01*
Y652770D01*
Y655309D01*
X751839Y657849D01*
X754378D01*
X756917Y655309D01*
Y650231D01*
X754378Y647692D01*
X744222Y662927D02*
X741682Y665466D01*
Y670544D01*
X744222Y673084D01*
X746761D01*
X749300Y670544D01*
Y668005D01*
Y670544D01*
X751839Y673084D01*
X754378D01*
X756917Y670544D01*
Y665466D01*
X754378Y662927D01*
D11*
X218100Y165100D02*
G03*
X218100Y165100I-1000J0D01*
G01*
X802300Y177800D02*
G03*
X802300Y177800I-1000J0D01*
G01*
D12*
X199475Y135600D02*
Y146000D01*
X130725Y135600D02*
Y146000D01*
Y135600D02*
X199475D01*
X130725Y184200D02*
Y194600D01*
X199475Y184200D02*
Y194600D01*
X130725D02*
X199475D01*
X783675Y148300D02*
Y158700D01*
X714925Y148300D02*
Y158700D01*
Y148300D02*
X783675D01*
X714925Y196900D02*
Y207300D01*
X783675Y196900D02*
Y207300D01*
X714925D02*
X783675D01*
X350200Y372000D02*
X361000D01*
X350200Y390000D02*
X361000D01*
X693100Y422800D02*
X703900D01*
X693100Y440800D02*
X703900D01*
X693100Y618600D02*
X703900D01*
X693100Y600600D02*
X703900D01*
M02*
