G04*
G04 #@! TF.GenerationSoftware,Altium Limited,Altium Designer,25.3.3 (18)*
G04*
G04 Layer_Physical_Order=1*
G04 Layer_Color=255*
%FSLAX44Y44*%
%MOMM*%
G71*
G04*
G04 #@! TF.SameCoordinates,99CC6AD0-2A63-4927-AC08-F09ED2D19244*
G04*
G04*
G04 #@! TF.FilePolarity,Positive*
G04*
G01*
G75*
%ADD21R,2.2500X3.1800*%
%ADD22R,1.2000X1.8200*%
%ADD23C,1.2700*%
G04:AMPARAMS|DCode=24|XSize=2.1mm|YSize=2.1mm|CornerRadius=0.525mm|HoleSize=0mm|Usage=FLASHONLY|Rotation=180.000|XOffset=0mm|YOffset=0mm|HoleType=Round|Shape=RoundedRectangle|*
%AMROUNDEDRECTD24*
21,1,2.1000,1.0500,0,0,180.0*
21,1,1.0500,2.1000,0,0,180.0*
1,1,1.0500,-0.5250,0.5250*
1,1,1.0500,0.5250,0.5250*
1,1,1.0500,0.5250,-0.5250*
1,1,1.0500,-0.5250,-0.5250*
%
%ADD24ROUNDEDRECTD24*%
%ADD25R,2.1000X2.1000*%
%ADD26C,2.1000*%
%ADD27C,6.0000*%
%ADD28C,1.2700*%
G36*
X914400Y753386D02*
Y753386D01*
X916888Y753260D01*
X919911Y753062D01*
X925328Y751985D01*
X930558Y750209D01*
X935512Y747766D01*
X940104Y744698D01*
X944256Y741056D01*
X947898Y736904D01*
X950966Y732312D01*
X953409Y727358D01*
X955185Y722128D01*
X956262Y716711D01*
X956460Y713688D01*
X956586Y711200D01*
X956586Y708660D01*
X956586Y78740D01*
X956586Y76200D01*
X956460Y73712D01*
X956262Y70689D01*
X955185Y65272D01*
X953409Y60042D01*
X950966Y55088D01*
X947898Y50496D01*
X944256Y46344D01*
X940104Y42702D01*
X935512Y39634D01*
X930558Y37191D01*
X925328Y35415D01*
X919911Y34338D01*
X914588Y33989D01*
X914400Y34014D01*
X50800Y34014D01*
X50800Y34014D01*
Y34014D01*
X48312Y34140D01*
X45289Y34338D01*
X39872Y35415D01*
X34642Y37191D01*
X29688Y39633D01*
X25096Y42702D01*
X20944Y46343D01*
X17302Y50496D01*
X14233Y55088D01*
X11791Y60042D01*
X10015Y65272D01*
X8938Y70689D01*
X8740Y73712D01*
X8614Y76200D01*
X8614D01*
Y711200D01*
X8589Y711388D01*
X8938Y716711D01*
X10015Y722128D01*
X11791Y727358D01*
X14233Y732312D01*
X17302Y736904D01*
X20944Y741056D01*
X25096Y744698D01*
X29688Y747766D01*
X34642Y750209D01*
X39872Y751985D01*
X45289Y753062D01*
X48312Y753260D01*
X50800Y753386D01*
X53340Y753386D01*
X911860Y753386D01*
X914400Y753386D01*
D02*
G37*
%LPC*%
G36*
X916961Y743740D02*
X911839D01*
X906780Y742939D01*
X901909Y741356D01*
X897345Y739031D01*
X893202Y736020D01*
X889580Y732398D01*
X886569Y728255D01*
X884244Y723691D01*
X882661Y718820D01*
X881860Y713761D01*
Y708639D01*
X882661Y703580D01*
X884244Y698709D01*
X886569Y694145D01*
X889580Y690002D01*
X893202Y686380D01*
X897345Y683369D01*
X901909Y681044D01*
X906780Y679461D01*
X911839Y678660D01*
X916961D01*
X922020Y679461D01*
X926891Y681044D01*
X931455Y683369D01*
X935598Y686380D01*
X939220Y690002D01*
X942231Y694145D01*
X944556Y698709D01*
X946139Y703580D01*
X946940Y708639D01*
Y713761D01*
X946139Y718820D01*
X944556Y723691D01*
X942231Y728255D01*
X939220Y732398D01*
X935598Y736020D01*
X931455Y739031D01*
X926891Y741356D01*
X922020Y742939D01*
X916961Y743740D01*
D02*
G37*
G36*
X53361D02*
X48239D01*
X43180Y742939D01*
X38309Y741356D01*
X33745Y739031D01*
X29602Y736020D01*
X25980Y732398D01*
X22969Y728255D01*
X20644Y723691D01*
X19061Y718820D01*
X18260Y713761D01*
Y708639D01*
X19061Y703580D01*
X20644Y698709D01*
X22969Y694145D01*
X25980Y690002D01*
X29602Y686380D01*
X33745Y683369D01*
X38309Y681044D01*
X43180Y679461D01*
X48239Y678660D01*
X53361D01*
X58420Y679461D01*
X63291Y681044D01*
X67855Y683369D01*
X71998Y686380D01*
X75620Y690002D01*
X78631Y694145D01*
X80956Y698709D01*
X82539Y703580D01*
X83340Y708639D01*
Y713761D01*
X82539Y718820D01*
X80956Y723691D01*
X78631Y728255D01*
X75620Y732398D01*
X71998Y736020D01*
X67855Y739031D01*
X63291Y741356D01*
X58420Y742939D01*
X53361Y743740D01*
D02*
G37*
G36*
X636717Y698840D02*
X633283D01*
X629967Y697951D01*
X626993Y696235D01*
X624565Y693807D01*
X622849Y690833D01*
X621960Y687517D01*
Y684083D01*
X622849Y680767D01*
X624565Y677793D01*
X626993Y675365D01*
X628377Y674566D01*
Y671634D01*
X626993Y670835D01*
X624565Y668407D01*
X622849Y665433D01*
X621960Y662117D01*
Y658683D01*
X622849Y655367D01*
X624146Y653120D01*
X623074Y650580D01*
X619420D01*
Y636270D01*
X650580D01*
Y650580D01*
X646926D01*
X645854Y653120D01*
X647151Y655367D01*
X648040Y658683D01*
Y662117D01*
X647151Y665433D01*
X645435Y668407D01*
X643007Y670835D01*
X641623Y671634D01*
Y674566D01*
X643007Y675365D01*
X645435Y677793D01*
X647151Y680767D01*
X648040Y684083D01*
Y687517D01*
X647151Y690833D01*
X645435Y693807D01*
X643007Y696235D01*
X640033Y697951D01*
X636717Y698840D01*
D02*
G37*
G36*
X724180Y623780D02*
X714370D01*
Y610870D01*
X724180D01*
Y623780D01*
D02*
G37*
G36*
X711830D02*
X702020D01*
Y610870D01*
X711830D01*
Y623780D01*
D02*
G37*
G36*
X724180Y608330D02*
X714370D01*
Y595420D01*
X724180D01*
Y608330D01*
D02*
G37*
G36*
X711830D02*
X702020D01*
Y595420D01*
X711830D01*
Y608330D01*
D02*
G37*
G36*
X523580Y599780D02*
X509270D01*
Y585470D01*
X523580D01*
Y599780D01*
D02*
G37*
G36*
X506730D02*
X492420D01*
Y585470D01*
X506730D01*
Y599780D01*
D02*
G37*
G36*
X789117Y698840D02*
X785683D01*
X782367Y697951D01*
X779393Y696235D01*
X776965Y693807D01*
X775249Y690833D01*
X774360Y687517D01*
Y684083D01*
X775249Y680767D01*
X776965Y677793D01*
X779393Y675365D01*
X780777Y674566D01*
Y671634D01*
X779393Y670835D01*
X776965Y668407D01*
X775249Y665433D01*
X774360Y662117D01*
Y658683D01*
X775249Y655367D01*
X776965Y652393D01*
X779393Y649965D01*
X780777Y649166D01*
Y646234D01*
X779393Y645435D01*
X776965Y643007D01*
X775249Y640033D01*
X774360Y636717D01*
Y633283D01*
X775249Y629967D01*
X776965Y626993D01*
X779393Y624565D01*
X780777Y623767D01*
Y620834D01*
X779393Y620035D01*
X776965Y617607D01*
X775249Y614633D01*
X774360Y611317D01*
Y607883D01*
X775249Y604567D01*
X776965Y601593D01*
X779393Y599165D01*
X780777Y598367D01*
Y595434D01*
X779393Y594635D01*
X776965Y592207D01*
X775249Y589233D01*
X774360Y585917D01*
Y582483D01*
X775249Y579167D01*
X776965Y576193D01*
X779393Y573765D01*
X780777Y572966D01*
Y570033D01*
X779393Y569235D01*
X776965Y566807D01*
X775249Y563833D01*
X774360Y560517D01*
Y557083D01*
X775249Y553767D01*
X776965Y550793D01*
X779393Y548365D01*
X782367Y546649D01*
X785683Y545760D01*
X789117D01*
X792433Y546649D01*
X795407Y548365D01*
X797835Y550793D01*
X799551Y553767D01*
X800440Y557083D01*
Y560517D01*
X799551Y563833D01*
X797835Y566807D01*
X795407Y569235D01*
X794023Y570033D01*
Y572966D01*
X795407Y573765D01*
X796875Y575233D01*
X809086D01*
X908060Y476260D01*
X909917Y474835D01*
X912079Y473939D01*
X914400Y473633D01*
X930325D01*
X931793Y472165D01*
X934767Y470449D01*
X938083Y469560D01*
X941517D01*
X944833Y470449D01*
X947807Y472165D01*
X950235Y474593D01*
X951951Y477567D01*
X952840Y480883D01*
Y484317D01*
X951951Y487633D01*
X950235Y490607D01*
X947807Y493035D01*
X946423Y493834D01*
Y496767D01*
X947807Y497565D01*
X950235Y499993D01*
X951951Y502967D01*
X952840Y506283D01*
Y509717D01*
X951951Y513033D01*
X950235Y516007D01*
X947807Y518435D01*
X944833Y520151D01*
X941517Y521040D01*
X938083D01*
X934767Y520151D01*
X931793Y518435D01*
X930325Y516967D01*
X918114D01*
X819140Y615940D01*
X817283Y617365D01*
X815121Y618261D01*
X812800Y618567D01*
X796875D01*
X795407Y620035D01*
X794023Y620834D01*
Y623767D01*
X795407Y624565D01*
X796875Y626033D01*
X834486D01*
X908060Y552460D01*
X909917Y551035D01*
X912079Y550139D01*
X914400Y549833D01*
X930325D01*
X931793Y548365D01*
X934767Y546649D01*
X938083Y545760D01*
X941517D01*
X944833Y546649D01*
X947807Y548365D01*
X950235Y550793D01*
X951951Y553767D01*
X952840Y557083D01*
Y560517D01*
X951951Y563833D01*
X950235Y566807D01*
X947807Y569235D01*
X946423Y570033D01*
Y572966D01*
X947807Y573765D01*
X950235Y576193D01*
X951951Y579167D01*
X952840Y582483D01*
Y585917D01*
X951951Y589233D01*
X950235Y592207D01*
X947807Y594635D01*
X944833Y596351D01*
X941517Y597240D01*
X938083D01*
X934767Y596351D01*
X931793Y594635D01*
X930325Y593167D01*
X918114D01*
X844540Y666740D01*
X842683Y668165D01*
X840521Y669061D01*
X838200Y669367D01*
X796875D01*
X795407Y670835D01*
X794023Y671634D01*
Y674566D01*
X795407Y675365D01*
X797835Y677793D01*
X799551Y680767D01*
X800440Y684083D01*
Y687517D01*
X799551Y690833D01*
X797835Y693807D01*
X795407Y696235D01*
X792433Y697951D01*
X789117Y698840D01*
D02*
G37*
G36*
X523580Y582930D02*
X508000D01*
X492420D01*
Y568620D01*
X496074D01*
X497146Y566080D01*
X495849Y563833D01*
X494960Y560517D01*
Y557083D01*
X495849Y553767D01*
X497565Y550793D01*
X499993Y548365D01*
X501377Y547566D01*
Y544633D01*
X499993Y543835D01*
X497565Y541407D01*
X495849Y538433D01*
X494960Y535117D01*
Y531683D01*
X495849Y528367D01*
X497565Y525393D01*
X499993Y522965D01*
X501377Y522166D01*
Y519234D01*
X499993Y518435D01*
X497565Y516007D01*
X495849Y513033D01*
X494960Y509717D01*
Y506283D01*
X495849Y502967D01*
X497565Y499993D01*
X499993Y497565D01*
X501377Y496767D01*
Y493834D01*
X499993Y493035D01*
X497565Y490607D01*
X495849Y487633D01*
X494960Y484317D01*
Y480883D01*
X495849Y477567D01*
X497565Y474593D01*
X499993Y472165D01*
X501377Y471367D01*
Y468433D01*
X499993Y467635D01*
X497565Y465207D01*
X495849Y462233D01*
X494960Y458917D01*
Y455483D01*
X495849Y452167D01*
X497565Y449193D01*
X499993Y446765D01*
X501377Y445966D01*
Y443033D01*
X499993Y442235D01*
X497565Y439807D01*
X495849Y436833D01*
X494960Y433517D01*
Y430083D01*
X495849Y426767D01*
X497565Y423793D01*
X499993Y421365D01*
X501377Y420566D01*
Y417634D01*
X499993Y416835D01*
X497565Y414407D01*
X495849Y411433D01*
X494960Y408117D01*
Y404683D01*
X495849Y401367D01*
X497565Y398393D01*
X499993Y395965D01*
X502967Y394249D01*
X506283Y393360D01*
X509717D01*
X513033Y394249D01*
X516007Y395965D01*
X518435Y398393D01*
X520151Y401367D01*
X521040Y404683D01*
Y408117D01*
X520151Y411433D01*
X518435Y414407D01*
X516007Y416835D01*
X514623Y417634D01*
Y420566D01*
X516007Y421365D01*
X518435Y423793D01*
X520151Y426767D01*
X521040Y430083D01*
Y433517D01*
X520151Y436833D01*
X518435Y439807D01*
X516007Y442235D01*
X514623Y443033D01*
Y445966D01*
X516007Y446765D01*
X518435Y449193D01*
X520151Y452167D01*
X521040Y455483D01*
Y458917D01*
X520151Y462233D01*
X518435Y465207D01*
X516007Y467635D01*
X514623Y468433D01*
Y471367D01*
X516007Y472165D01*
X517475Y473633D01*
X617233D01*
X619420Y472780D01*
Y458470D01*
X650580D01*
Y472780D01*
X646926D01*
X645854Y475320D01*
X647151Y477567D01*
X648040Y480883D01*
Y484317D01*
X647151Y487633D01*
X645435Y490607D01*
X643007Y493035D01*
X641623Y493834D01*
Y496767D01*
X643007Y497565D01*
X645435Y499993D01*
X647151Y502967D01*
X648040Y506283D01*
Y509717D01*
X647151Y513033D01*
X645435Y516007D01*
X643007Y518435D01*
X640033Y520151D01*
X636717Y521040D01*
X633283D01*
X629967Y520151D01*
X626993Y518435D01*
X625525Y516967D01*
X517475D01*
X516007Y518435D01*
X514623Y519234D01*
Y522166D01*
X516007Y522965D01*
X518435Y525393D01*
X520151Y528367D01*
X521040Y531683D01*
Y535117D01*
X520151Y538433D01*
X518435Y541407D01*
X516007Y543835D01*
X514623Y544633D01*
Y547566D01*
X516007Y548365D01*
X518435Y550793D01*
X520151Y553767D01*
X521040Y557083D01*
Y560517D01*
X520151Y563833D01*
X518854Y566080D01*
X519926Y568620D01*
X523580D01*
Y582930D01*
D02*
G37*
G36*
X650580Y633730D02*
X619420D01*
Y619420D01*
X620462D01*
X622160Y616884D01*
X621893Y614850D01*
Y604350D01*
X622160Y602316D01*
X622946Y600421D01*
X624194Y598794D01*
X625821Y597546D01*
X626481Y597272D01*
X626808Y595588D01*
X626772Y594414D01*
X624565Y592207D01*
X622849Y589233D01*
X621960Y585917D01*
Y582483D01*
X622849Y579167D01*
X624565Y576193D01*
X626993Y573765D01*
X628377Y572966D01*
Y570033D01*
X626993Y569235D01*
X624565Y566807D01*
X622849Y563833D01*
X621960Y560517D01*
Y557083D01*
X622849Y553767D01*
X624565Y550793D01*
X626993Y548365D01*
X629967Y546649D01*
X633283Y545760D01*
X636717D01*
X640033Y546649D01*
X643007Y548365D01*
X645435Y550793D01*
X647151Y553767D01*
X648040Y557083D01*
Y560517D01*
X647151Y563833D01*
X645435Y566807D01*
X643007Y569235D01*
X641623Y570033D01*
Y572966D01*
X643007Y573765D01*
X645435Y576193D01*
X647151Y579167D01*
X648040Y582483D01*
Y585917D01*
X647151Y589233D01*
X645435Y592207D01*
X643227Y594414D01*
X643192Y595588D01*
X643519Y597272D01*
X644179Y597546D01*
X645806Y598794D01*
X647055Y600421D01*
X647142Y600633D01*
X674933D01*
Y440767D01*
X652767D01*
X650580Y441620D01*
Y455930D01*
X619420D01*
Y441620D01*
X620462D01*
X622160Y439084D01*
X621893Y437050D01*
Y426550D01*
X622160Y424516D01*
X622946Y422621D01*
X624194Y420994D01*
X625821Y419745D01*
X626481Y419472D01*
X626808Y417788D01*
X626772Y416614D01*
X624565Y414407D01*
X622849Y411433D01*
X621960Y408117D01*
Y404683D01*
X622849Y401367D01*
X624565Y398393D01*
X626993Y395965D01*
X628377Y395167D01*
Y392234D01*
X626993Y391435D01*
X624565Y389007D01*
X622849Y386033D01*
X621960Y382717D01*
Y379283D01*
X622849Y375967D01*
X624565Y372993D01*
X626993Y370565D01*
X629967Y368849D01*
X633283Y367960D01*
X636717D01*
X640033Y368849D01*
X643007Y370565D01*
X645435Y372993D01*
X647151Y375967D01*
X648040Y379283D01*
Y382717D01*
X647151Y386033D01*
X645435Y389007D01*
X643007Y391435D01*
X641623Y392234D01*
Y395167D01*
X643007Y395965D01*
X645435Y398393D01*
X647151Y401367D01*
X648040Y404683D01*
Y408117D01*
X647151Y411433D01*
X645435Y414407D01*
X643227Y416614D01*
X643192Y417788D01*
X643519Y419472D01*
X644179Y419745D01*
X645806Y420994D01*
X647055Y422621D01*
X647142Y422833D01*
X674933D01*
Y324394D01*
X511906Y161367D01*
X443942D01*
X443854Y161579D01*
X442606Y163206D01*
X440979Y164454D01*
X439084Y165240D01*
X437050Y165507D01*
X426550D01*
X424516Y165240D01*
X422621Y164454D01*
X420994Y163206D01*
X419745Y161579D01*
X418960Y159684D01*
X418693Y157650D01*
Y147150D01*
X418960Y145116D01*
X419745Y143221D01*
X420994Y141594D01*
X422621Y140345D01*
X424516Y139560D01*
X426550Y139293D01*
X437050D01*
X439084Y139560D01*
X440979Y140345D01*
X442606Y141594D01*
X443854Y143221D01*
X443942Y143433D01*
X515620D01*
X517941Y143739D01*
X520103Y144635D01*
X521960Y146060D01*
X690240Y314340D01*
X691665Y316197D01*
X692561Y318359D01*
X692867Y320680D01*
Y431800D01*
Y609600D01*
X692561Y611921D01*
X692440Y612213D01*
Y621240D01*
X675360D01*
Y618567D01*
X652767D01*
X650580Y619420D01*
Y633730D01*
D02*
G37*
G36*
X724180Y445980D02*
X714370D01*
Y433070D01*
X724180D01*
Y445980D01*
D02*
G37*
G36*
X711830D02*
X702020D01*
Y433070D01*
X711830D01*
Y445980D01*
D02*
G37*
G36*
X724180Y430530D02*
X714370D01*
Y417620D01*
X724180D01*
Y430530D01*
D02*
G37*
G36*
X711830D02*
X702020D01*
Y417620D01*
X711830D01*
Y430530D01*
D02*
G37*
G36*
X789117Y521040D02*
X785683D01*
X782367Y520151D01*
X779393Y518435D01*
X776965Y516007D01*
X775249Y513033D01*
X774360Y509717D01*
Y506283D01*
X775249Y502967D01*
X776965Y499993D01*
X779393Y497565D01*
X780777Y496767D01*
Y493834D01*
X779393Y493035D01*
X776965Y490607D01*
X775249Y487633D01*
X774360Y484317D01*
Y480883D01*
X775249Y477567D01*
X776965Y474593D01*
X779393Y472165D01*
X780777Y471367D01*
Y468433D01*
X779393Y467635D01*
X776965Y465207D01*
X775249Y462233D01*
X774360Y458917D01*
Y455483D01*
X775249Y452167D01*
X776965Y449193D01*
X779393Y446765D01*
X780777Y445966D01*
Y443033D01*
X779393Y442235D01*
X776965Y439807D01*
X775249Y436833D01*
X774360Y433517D01*
Y430083D01*
X775249Y426767D01*
X776965Y423793D01*
X779393Y421365D01*
X780777Y420566D01*
Y417634D01*
X779393Y416835D01*
X776965Y414407D01*
X775249Y411433D01*
X774360Y408117D01*
Y404683D01*
X775249Y401367D01*
X776965Y398393D01*
X779393Y395965D01*
X780777Y395167D01*
Y392234D01*
X779393Y391435D01*
X776965Y389007D01*
X775249Y386033D01*
X774360Y382717D01*
Y379283D01*
X775249Y375967D01*
X776965Y372993D01*
X779393Y370565D01*
X782367Y368849D01*
X785683Y367960D01*
X789117D01*
X792433Y368849D01*
X795407Y370565D01*
X797835Y372993D01*
X799551Y375967D01*
X800440Y379283D01*
Y382717D01*
X799551Y386033D01*
X797835Y389007D01*
X795407Y391435D01*
X794023Y392234D01*
Y395167D01*
X795407Y395965D01*
X796875Y397433D01*
X930325D01*
X931793Y395965D01*
X934767Y394249D01*
X938083Y393360D01*
X941517D01*
X944833Y394249D01*
X947807Y395965D01*
X950235Y398393D01*
X951951Y401367D01*
X952840Y404683D01*
Y408117D01*
X951951Y411433D01*
X950235Y414407D01*
X947807Y416835D01*
X946423Y417634D01*
Y420566D01*
X947807Y421365D01*
X950235Y423793D01*
X951951Y426767D01*
X952840Y430083D01*
Y433517D01*
X951951Y436833D01*
X950235Y439807D01*
X947807Y442235D01*
X944833Y443951D01*
X941517Y444840D01*
X938083D01*
X934767Y443951D01*
X931793Y442235D01*
X930325Y440767D01*
X796875D01*
X795407Y442235D01*
X794023Y443033D01*
Y445966D01*
X795407Y446765D01*
X797835Y449193D01*
X799551Y452167D01*
X800440Y455483D01*
Y458917D01*
X799551Y462233D01*
X797835Y465207D01*
X795407Y467635D01*
X794023Y468433D01*
Y471367D01*
X795407Y472165D01*
X797835Y474593D01*
X799551Y477567D01*
X800440Y480883D01*
Y484317D01*
X799551Y487633D01*
X797835Y490607D01*
X795407Y493035D01*
X794023Y493834D01*
Y496767D01*
X795407Y497565D01*
X797835Y499993D01*
X799551Y502967D01*
X800440Y506283D01*
Y509717D01*
X799551Y513033D01*
X797835Y516007D01*
X795407Y518435D01*
X792433Y520151D01*
X789117Y521040D01*
D02*
G37*
G36*
X255717Y673440D02*
X252283D01*
X248967Y672551D01*
X245993Y670835D01*
X243565Y668407D01*
X241849Y665433D01*
X240960Y662117D01*
Y658683D01*
X241849Y655367D01*
X243565Y652393D01*
X245993Y649965D01*
X247377Y649166D01*
Y646234D01*
X245993Y645435D01*
X243565Y643007D01*
X241849Y640033D01*
X240960Y636717D01*
Y633283D01*
X241849Y629967D01*
X243565Y626993D01*
X245993Y624565D01*
X247377Y623767D01*
Y620834D01*
X245993Y620035D01*
X243565Y617607D01*
X241849Y614633D01*
X240960Y611317D01*
Y607883D01*
X241849Y604567D01*
X243565Y601593D01*
X245993Y599165D01*
X247377Y598367D01*
Y595434D01*
X245993Y594635D01*
X243565Y592207D01*
X241849Y589233D01*
X240960Y585917D01*
Y582483D01*
X241849Y579167D01*
X243565Y576193D01*
X245993Y573765D01*
X247377Y572966D01*
Y570033D01*
X245993Y569235D01*
X243565Y566807D01*
X241849Y563833D01*
X240960Y560517D01*
Y557083D01*
X241849Y553767D01*
X243565Y550793D01*
X245993Y548365D01*
X247377Y547566D01*
Y544633D01*
X245993Y543835D01*
X243565Y541407D01*
X241849Y538433D01*
X240960Y535117D01*
Y531683D01*
X241849Y528367D01*
X243565Y525393D01*
X245993Y522965D01*
X247377Y522166D01*
Y519234D01*
X245993Y518435D01*
X243565Y516007D01*
X241849Y513033D01*
X240960Y509717D01*
Y506283D01*
X241849Y502967D01*
X243565Y499993D01*
X245993Y497565D01*
X247377Y496767D01*
Y493834D01*
X245993Y493035D01*
X243565Y490607D01*
X241849Y487633D01*
X240960Y484317D01*
Y480883D01*
X241849Y477567D01*
X243565Y474593D01*
X245993Y472165D01*
X247377Y471367D01*
Y468433D01*
X245993Y467635D01*
X243565Y465207D01*
X241849Y462233D01*
X240960Y458917D01*
Y455483D01*
X241849Y452167D01*
X243565Y449193D01*
X245993Y446765D01*
X247377Y445966D01*
Y443033D01*
X245993Y442235D01*
X243565Y439807D01*
X241849Y436833D01*
X240960Y433517D01*
Y430083D01*
X241849Y426767D01*
X243565Y423793D01*
X245993Y421365D01*
X247377Y420566D01*
Y417634D01*
X245993Y416835D01*
X243565Y414407D01*
X241849Y411433D01*
X240960Y408117D01*
Y404683D01*
X241849Y401367D01*
X243146Y399120D01*
X242074Y396580D01*
X238420D01*
Y382270D01*
X269580D01*
Y396580D01*
X265926D01*
X264854Y399120D01*
X266151Y401367D01*
X267040Y404683D01*
Y408117D01*
X266151Y411433D01*
X264435Y414407D01*
X262007Y416835D01*
X260623Y417634D01*
Y420566D01*
X262007Y421365D01*
X264435Y423793D01*
X266151Y426767D01*
X267040Y430083D01*
Y433517D01*
X266151Y436833D01*
X264435Y439807D01*
X262007Y442235D01*
X260623Y443033D01*
Y445966D01*
X262007Y446765D01*
X264435Y449193D01*
X266151Y452167D01*
X267040Y455483D01*
Y458917D01*
X266151Y462233D01*
X264435Y465207D01*
X262007Y467635D01*
X260623Y468433D01*
Y471367D01*
X262007Y472165D01*
X264435Y474593D01*
X266151Y477567D01*
X267040Y480883D01*
Y484317D01*
X266151Y487633D01*
X264435Y490607D01*
X262007Y493035D01*
X260623Y493834D01*
Y496767D01*
X262007Y497565D01*
X264435Y499993D01*
X266151Y502967D01*
X267040Y506283D01*
Y509717D01*
X266151Y513033D01*
X264435Y516007D01*
X262007Y518435D01*
X260623Y519234D01*
Y522166D01*
X262007Y522965D01*
X264435Y525393D01*
X266151Y528367D01*
X267040Y531683D01*
Y535117D01*
X266151Y538433D01*
X264435Y541407D01*
X262007Y543835D01*
X260623Y544633D01*
Y547566D01*
X262007Y548365D01*
X264435Y550793D01*
X266151Y553767D01*
X267040Y557083D01*
Y560517D01*
X266151Y563833D01*
X264435Y566807D01*
X262007Y569235D01*
X260623Y570033D01*
Y572966D01*
X262007Y573765D01*
X263475Y575233D01*
X275686D01*
X398471Y452448D01*
X398471Y452448D01*
X400328Y451023D01*
X402491Y450127D01*
X404812Y449821D01*
X404812Y449821D01*
X421003D01*
X421365Y449193D01*
X423793Y446765D01*
X425177Y445966D01*
Y443033D01*
X423793Y442235D01*
X421365Y439807D01*
X419649Y436833D01*
X418760Y433517D01*
Y430083D01*
X419649Y426767D01*
X421365Y423793D01*
X423573Y421586D01*
X423608Y420412D01*
X423281Y418728D01*
X422621Y418455D01*
X420994Y417206D01*
X419745Y415579D01*
X418960Y413684D01*
X418693Y411650D01*
Y402322D01*
X418683Y402250D01*
Y389967D01*
X378740D01*
Y392640D01*
X361660D01*
Y383613D01*
X361539Y383321D01*
X361233Y381000D01*
Y287554D01*
X298546Y224867D01*
X88342D01*
X88254Y225079D01*
X87006Y226706D01*
X85379Y227955D01*
X85167Y228042D01*
Y312433D01*
X85278Y312719D01*
X86494Y312852D01*
X88564Y310594D01*
X88493Y310050D01*
Y299550D01*
X88760Y297516D01*
X89545Y295621D01*
X90794Y293994D01*
X92421Y292745D01*
X94316Y291961D01*
X96350Y291693D01*
X106850D01*
X108884Y291961D01*
X110779Y292745D01*
X112406Y293994D01*
X113654Y295621D01*
X114439Y297516D01*
X114707Y299550D01*
Y310050D01*
X114439Y312084D01*
X116138Y314620D01*
X117180D01*
Y328930D01*
X101600D01*
Y331470D01*
X117180D01*
Y345780D01*
X113526D01*
X112454Y348320D01*
X113751Y350567D01*
X114640Y353883D01*
Y357317D01*
X113751Y360633D01*
X112035Y363607D01*
X109827Y365814D01*
X109792Y366988D01*
X110119Y368672D01*
X110779Y368946D01*
X112406Y370194D01*
X113654Y371821D01*
X114439Y373716D01*
X114707Y375750D01*
Y386250D01*
X114439Y388284D01*
X113654Y390179D01*
X112406Y391806D01*
X110779Y393055D01*
X110119Y393328D01*
X109792Y395012D01*
X109827Y396186D01*
X112035Y398393D01*
X113751Y401367D01*
X114640Y404683D01*
Y408117D01*
X113751Y411433D01*
X112035Y414407D01*
X109607Y416835D01*
X108223Y417634D01*
Y420566D01*
X109607Y421365D01*
X112035Y423793D01*
X113751Y426767D01*
X114640Y430083D01*
Y433517D01*
X113751Y436833D01*
X112035Y439807D01*
X109607Y442235D01*
X108223Y443033D01*
Y445966D01*
X109607Y446765D01*
X112035Y449193D01*
X113751Y452167D01*
X114640Y455483D01*
Y458917D01*
X113751Y462233D01*
X112035Y465207D01*
X109607Y467635D01*
X108223Y468433D01*
Y471367D01*
X109607Y472165D01*
X112035Y474593D01*
X113751Y477567D01*
X114640Y480883D01*
Y484317D01*
X113751Y487633D01*
X112035Y490607D01*
X109607Y493035D01*
X108223Y493834D01*
Y496767D01*
X109607Y497565D01*
X112035Y499993D01*
X113751Y502967D01*
X114640Y506283D01*
Y509717D01*
X113751Y513033D01*
X112035Y516007D01*
X109607Y518435D01*
X108223Y519234D01*
Y522166D01*
X109607Y522965D01*
X112035Y525393D01*
X113751Y528367D01*
X114640Y531683D01*
Y535117D01*
X113751Y538433D01*
X112035Y541407D01*
X109607Y543835D01*
X108223Y544633D01*
Y547566D01*
X109607Y548365D01*
X112035Y550793D01*
X113751Y553767D01*
X114640Y557083D01*
Y560517D01*
X113751Y563833D01*
X112035Y566807D01*
X109607Y569235D01*
X108223Y570033D01*
Y572966D01*
X109607Y573765D01*
X112035Y576193D01*
X113751Y579167D01*
X114640Y582483D01*
Y585917D01*
X113751Y589233D01*
X112035Y592207D01*
X109607Y594635D01*
X108223Y595434D01*
Y598367D01*
X109607Y599165D01*
X112035Y601593D01*
X113751Y604567D01*
X114640Y607883D01*
Y611317D01*
X113751Y614633D01*
X112035Y617607D01*
X109827Y619814D01*
X109792Y620988D01*
X110119Y622672D01*
X110779Y622946D01*
X112406Y624194D01*
X113654Y625821D01*
X114439Y627716D01*
X114707Y629750D01*
Y640250D01*
X114439Y642284D01*
X113654Y644179D01*
X112406Y645806D01*
X110779Y647055D01*
X110119Y647328D01*
X109792Y649012D01*
X109827Y650186D01*
X112035Y652393D01*
X113751Y655367D01*
X114640Y658683D01*
Y662117D01*
X113751Y665433D01*
X112035Y668407D01*
X109607Y670835D01*
X106633Y672551D01*
X103317Y673440D01*
X99883D01*
X96567Y672551D01*
X93593Y670835D01*
X91165Y668407D01*
X89449Y665433D01*
X88560Y662117D01*
Y658683D01*
X89449Y655367D01*
X91165Y652393D01*
X93372Y650186D01*
X93408Y649012D01*
X93081Y647328D01*
X92421Y647055D01*
X90794Y645806D01*
X89545Y644179D01*
X88760Y642284D01*
X88493Y640250D01*
Y629750D01*
X88760Y627716D01*
X89545Y625821D01*
X90794Y624194D01*
X92421Y622946D01*
X93081Y622672D01*
X93408Y620988D01*
X93372Y619814D01*
X91165Y617607D01*
X89449Y614633D01*
X88560Y611317D01*
Y607883D01*
X89449Y604567D01*
X91165Y601593D01*
X93593Y599165D01*
X94977Y598367D01*
Y595434D01*
X93593Y594635D01*
X91165Y592207D01*
X89449Y589233D01*
X88560Y585917D01*
Y582483D01*
X89449Y579167D01*
X91165Y576193D01*
X93593Y573765D01*
X94977Y572966D01*
Y570033D01*
X93593Y569235D01*
X91165Y566807D01*
X89449Y563833D01*
X88560Y560517D01*
Y557083D01*
X89449Y553767D01*
X91165Y550793D01*
X93593Y548365D01*
X94977Y547566D01*
Y544633D01*
X93593Y543835D01*
X91165Y541407D01*
X89449Y538433D01*
X88560Y535117D01*
Y531683D01*
X89449Y528367D01*
X91165Y525393D01*
X93593Y522965D01*
X94977Y522166D01*
Y519234D01*
X93593Y518435D01*
X91165Y516007D01*
X89449Y513033D01*
X88560Y509717D01*
Y506283D01*
X89449Y502967D01*
X91165Y499993D01*
X93593Y497565D01*
X94977Y496767D01*
Y493834D01*
X93593Y493035D01*
X91165Y490607D01*
X89449Y487633D01*
X88560Y484317D01*
Y480883D01*
X89449Y477567D01*
X91165Y474593D01*
X93593Y472165D01*
X94977Y471367D01*
Y468433D01*
X93593Y467635D01*
X91165Y465207D01*
X89449Y462233D01*
X88560Y458917D01*
Y455483D01*
X89449Y452167D01*
X91165Y449193D01*
X93593Y446765D01*
X94977Y445966D01*
Y443033D01*
X93593Y442235D01*
X91165Y439807D01*
X89449Y436833D01*
X88560Y433517D01*
Y430083D01*
X89449Y426767D01*
X91165Y423793D01*
X93593Y421365D01*
X94977Y420566D01*
Y417634D01*
X93593Y416835D01*
X91165Y414407D01*
X89449Y411433D01*
X88560Y408117D01*
Y404683D01*
X89449Y401367D01*
X91165Y398393D01*
X93372Y396186D01*
X93408Y395012D01*
X93081Y393328D01*
X92421Y393055D01*
X90794Y391806D01*
X89545Y390179D01*
X88760Y388284D01*
X88493Y386250D01*
Y385817D01*
X79489D01*
X77169Y385511D01*
X75006Y384615D01*
X73149Y383190D01*
X69860Y379901D01*
X68435Y378044D01*
X67539Y375881D01*
X67233Y373560D01*
Y228042D01*
X67021Y227955D01*
X65394Y226706D01*
X64145Y225079D01*
X63361Y223184D01*
X63093Y221150D01*
Y210650D01*
X63361Y208616D01*
X64145Y206721D01*
X65394Y205094D01*
X67021Y203846D01*
X68916Y203060D01*
X70950Y202793D01*
X81450D01*
X83484Y203060D01*
X85379Y203846D01*
X87006Y205094D01*
X88254Y206721D01*
X88342Y206933D01*
X302260D01*
X304581Y207239D01*
X306743Y208135D01*
X308600Y209560D01*
X376540Y277500D01*
X377965Y279357D01*
X378861Y281519D01*
X379167Y283840D01*
Y372033D01*
X424361D01*
X426681Y372339D01*
X428844Y373235D01*
X430701Y374660D01*
X433990Y377949D01*
X435415Y379806D01*
X436311Y381969D01*
X436617Y384290D01*
Y393293D01*
X437050D01*
X439084Y393560D01*
X440979Y394346D01*
X442606Y395594D01*
X443854Y397221D01*
X444640Y399116D01*
X444907Y401150D01*
Y411650D01*
X444640Y413684D01*
X443854Y415579D01*
X442606Y417206D01*
X440979Y418455D01*
X440319Y418728D01*
X439992Y420412D01*
X440028Y421586D01*
X442235Y423793D01*
X443951Y426767D01*
X444840Y430083D01*
Y433517D01*
X443951Y436833D01*
X442235Y439807D01*
X439807Y442235D01*
X438423Y443033D01*
Y445966D01*
X439807Y446765D01*
X442235Y449193D01*
X443951Y452167D01*
X444840Y455483D01*
Y458917D01*
X443951Y462233D01*
X442235Y465207D01*
X439807Y467635D01*
X438423Y468433D01*
Y471367D01*
X439807Y472165D01*
X442235Y474593D01*
X443951Y477567D01*
X444840Y480883D01*
Y484317D01*
X443951Y487633D01*
X442235Y490607D01*
X439807Y493035D01*
X438423Y493834D01*
Y496767D01*
X439807Y497565D01*
X442235Y499993D01*
X442597Y500621D01*
X451349D01*
X453669Y500927D01*
X455832Y501823D01*
X457689Y503248D01*
X463540Y509099D01*
X464965Y510956D01*
X465861Y513119D01*
X466167Y515439D01*
Y652961D01*
X465861Y655281D01*
X464965Y657444D01*
X463540Y659301D01*
X456101Y666740D01*
X454244Y668165D01*
X452081Y669061D01*
X449761Y669367D01*
X263475D01*
X262007Y670835D01*
X259033Y672551D01*
X255717Y673440D01*
D02*
G37*
G36*
X352080Y395180D02*
X342270D01*
Y382270D01*
X352080D01*
Y395180D01*
D02*
G37*
G36*
X339730D02*
X329920D01*
Y382270D01*
X339730D01*
Y395180D01*
D02*
G37*
G36*
X352080Y379730D02*
X342270D01*
Y366820D01*
X352080D01*
Y379730D01*
D02*
G37*
G36*
X339730D02*
X329920D01*
Y366820D01*
X339730D01*
Y379730D01*
D02*
G37*
G36*
X447380Y345780D02*
X433070D01*
Y331470D01*
X447380D01*
Y345780D01*
D02*
G37*
G36*
X430530D02*
X416220D01*
Y331470D01*
X430530D01*
Y345780D01*
D02*
G37*
G36*
X851240Y343240D02*
X825160D01*
Y317160D01*
X851240D01*
Y343240D01*
D02*
G37*
G36*
X447380Y328930D02*
X433070D01*
Y314620D01*
X447380D01*
Y328930D01*
D02*
G37*
G36*
X430530D02*
X416220D01*
Y314620D01*
X430530D01*
Y328930D01*
D02*
G37*
G36*
X269580Y379730D02*
X238420D01*
Y365420D01*
X242074D01*
X243146Y362880D01*
X241849Y360633D01*
X240960Y357317D01*
Y353883D01*
X241849Y350567D01*
X243565Y347593D01*
X245993Y345165D01*
X247377Y344366D01*
Y341433D01*
X245993Y340635D01*
X243565Y338207D01*
X241849Y335233D01*
X240960Y331917D01*
Y328483D01*
X241849Y325167D01*
X243565Y322193D01*
X245993Y319765D01*
X247377Y318967D01*
Y316033D01*
X245993Y315235D01*
X243565Y312807D01*
X241849Y309833D01*
X240960Y306517D01*
Y303083D01*
X241849Y299767D01*
X243565Y296793D01*
X245993Y294365D01*
X248967Y292649D01*
X252283Y291760D01*
X255717D01*
X259033Y292649D01*
X262007Y294365D01*
X264435Y296793D01*
X266151Y299767D01*
X267040Y303083D01*
Y306517D01*
X266151Y309833D01*
X264435Y312807D01*
X262007Y315235D01*
X260623Y316033D01*
Y318967D01*
X262007Y319765D01*
X264435Y322193D01*
X266151Y325167D01*
X267040Y328483D01*
Y331917D01*
X266151Y335233D01*
X264435Y338207D01*
X262007Y340635D01*
X260623Y341433D01*
Y344366D01*
X262007Y345165D01*
X264435Y347593D01*
X266151Y350567D01*
X267040Y353883D01*
Y357317D01*
X266151Y360633D01*
X264854Y362880D01*
X265926Y365420D01*
X269580D01*
Y379730D01*
D02*
G37*
G36*
X267040Y190840D02*
X240960D01*
Y168739D01*
X238613Y167768D01*
X234940Y171440D01*
X233083Y172865D01*
X230921Y173761D01*
X228600Y174067D01*
X213440D01*
Y183540D01*
X185860D01*
Y146660D01*
X213440D01*
Y156133D01*
X224886D01*
X240893Y140126D01*
Y134450D01*
X241161Y132416D01*
X241945Y130521D01*
X243194Y128894D01*
X244821Y127646D01*
X246716Y126861D01*
X248750Y126593D01*
X259250D01*
X261284Y126861D01*
X263179Y127646D01*
X264806Y128894D01*
X266054Y130521D01*
X266840Y132416D01*
X267107Y134450D01*
Y144950D01*
X266840Y146984D01*
X266054Y148879D01*
X264806Y150506D01*
X263179Y151755D01*
X261284Y152540D01*
X259250Y152807D01*
X253574D01*
X243967Y162413D01*
X244939Y164760D01*
X267040D01*
Y190840D01*
D02*
G37*
G36*
X91780Y155280D02*
X77470D01*
Y140970D01*
X91780D01*
Y155280D01*
D02*
G37*
G36*
X74930D02*
X60620D01*
Y140970D01*
X74930D01*
Y155280D01*
D02*
G37*
G36*
X797640Y196240D02*
X770060D01*
Y159360D01*
X797640D01*
Y168833D01*
X809086D01*
X825093Y152826D01*
Y147150D01*
X825360Y145116D01*
X826145Y143221D01*
X827394Y141594D01*
X829021Y140345D01*
X830916Y139560D01*
X832950Y139293D01*
X843450D01*
X845484Y139560D01*
X847379Y140345D01*
X849006Y141594D01*
X850255Y143221D01*
X851040Y145116D01*
X851307Y147150D01*
Y157650D01*
X851040Y159684D01*
X850255Y161579D01*
X849006Y163206D01*
X847379Y164454D01*
X845484Y165240D01*
X843450Y165507D01*
X837774D01*
X819140Y184140D01*
X817283Y185565D01*
X815121Y186461D01*
X812800Y186767D01*
X797640D01*
Y196240D01*
D02*
G37*
G36*
X91780Y138430D02*
X77470D01*
Y124120D01*
X91780D01*
Y138430D01*
D02*
G37*
G36*
X74930D02*
X60620D01*
Y124120D01*
X74930D01*
Y138430D01*
D02*
G37*
G36*
X916961Y108740D02*
X911839D01*
X906780Y107939D01*
X901909Y106356D01*
X897345Y104031D01*
X893202Y101020D01*
X889580Y97398D01*
X886569Y93255D01*
X884244Y88691D01*
X882661Y83820D01*
X881860Y78761D01*
Y73639D01*
X882661Y68580D01*
X884244Y63709D01*
X886569Y59145D01*
X889580Y55002D01*
X893202Y51380D01*
X897345Y48369D01*
X901909Y46044D01*
X906780Y44461D01*
X911839Y43660D01*
X916961D01*
X922020Y44461D01*
X926891Y46044D01*
X931455Y48369D01*
X935598Y51380D01*
X939220Y55002D01*
X942231Y59145D01*
X944556Y63709D01*
X946139Y68580D01*
X946940Y73639D01*
Y78761D01*
X946139Y83820D01*
X944556Y88691D01*
X942231Y93255D01*
X939220Y97398D01*
X935598Y101020D01*
X931455Y104031D01*
X926891Y106356D01*
X922020Y107939D01*
X916961Y108740D01*
D02*
G37*
G36*
X53361D02*
X48239D01*
X43180Y107939D01*
X38309Y106356D01*
X33745Y104031D01*
X29602Y101020D01*
X25980Y97398D01*
X22969Y93255D01*
X20644Y88691D01*
X19061Y83820D01*
X18260Y78761D01*
Y73639D01*
X19061Y68580D01*
X20644Y63709D01*
X22969Y59145D01*
X25980Y55002D01*
X29602Y51380D01*
X33745Y48369D01*
X38309Y46044D01*
X43180Y44461D01*
X48239Y43660D01*
X53361D01*
X58420Y44461D01*
X63291Y46044D01*
X67855Y48369D01*
X71998Y51380D01*
X75620Y55002D01*
X78631Y59145D01*
X80956Y63709D01*
X82539Y68580D01*
X83340Y73639D01*
Y78761D01*
X82539Y83820D01*
X80956Y88691D01*
X78631Y93255D01*
X75620Y97398D01*
X71998Y101020D01*
X67855Y104031D01*
X63291Y106356D01*
X58420Y107939D01*
X53361Y108740D01*
D02*
G37*
G36*
X789117Y63840D02*
X785683D01*
X782367Y62951D01*
X779393Y61235D01*
X776965Y58807D01*
X775249Y55833D01*
X774360Y52517D01*
Y49083D01*
X775249Y45767D01*
X776965Y42793D01*
X779393Y40365D01*
X782367Y38649D01*
X785683Y37760D01*
X789117D01*
X792433Y38649D01*
X795407Y40365D01*
X797835Y42793D01*
X799551Y45767D01*
X800440Y49083D01*
Y52517D01*
X799551Y55833D01*
X797835Y58807D01*
X795407Y61235D01*
X792433Y62951D01*
X789117Y63840D01*
D02*
G37*
G36*
X728540Y196240D02*
X700960D01*
Y159360D01*
X702233D01*
Y60275D01*
X700765Y58807D01*
X699049Y55833D01*
X698160Y52517D01*
Y49083D01*
X699049Y45767D01*
X700765Y42793D01*
X703193Y40365D01*
X706167Y38649D01*
X709483Y37760D01*
X712917D01*
X716233Y38649D01*
X719207Y40365D01*
X721635Y42793D01*
X723351Y45767D01*
X724240Y49083D01*
Y52517D01*
X723351Y55833D01*
X721635Y58807D01*
X720167Y60275D01*
Y159360D01*
X728540D01*
Y196240D01*
D02*
G37*
G36*
X204917Y63840D02*
X201483D01*
X198167Y62951D01*
X195193Y61235D01*
X192765Y58807D01*
X191049Y55833D01*
X190160Y52517D01*
Y49083D01*
X191049Y45767D01*
X192765Y42793D01*
X195193Y40365D01*
X198167Y38649D01*
X201483Y37760D01*
X204917D01*
X208233Y38649D01*
X211207Y40365D01*
X213635Y42793D01*
X215351Y45767D01*
X216240Y49083D01*
Y52517D01*
X215351Y55833D01*
X213635Y58807D01*
X211207Y61235D01*
X208233Y62951D01*
X204917Y63840D01*
D02*
G37*
G36*
X144340Y183540D02*
X116760D01*
Y146660D01*
X119621D01*
Y61597D01*
X118993Y61235D01*
X116565Y58807D01*
X114849Y55833D01*
X113960Y52517D01*
Y49083D01*
X114849Y45767D01*
X116565Y42793D01*
X118993Y40365D01*
X121967Y38649D01*
X125283Y37760D01*
X128717D01*
X132033Y38649D01*
X135007Y40365D01*
X137435Y42793D01*
X139151Y45767D01*
X140040Y49083D01*
Y52517D01*
X139151Y55833D01*
X137555Y58598D01*
Y146660D01*
X144340D01*
Y183540D01*
D02*
G37*
%LPD*%
G36*
X448233Y649246D02*
Y519154D01*
X447635Y518555D01*
X439599D01*
X438423Y519234D01*
Y522166D01*
X439807Y522965D01*
X442235Y525393D01*
X443951Y528367D01*
X444840Y531683D01*
Y535117D01*
X443951Y538433D01*
X442235Y541407D01*
X439807Y543835D01*
X438423Y544633D01*
Y547566D01*
X439807Y548365D01*
X442235Y550793D01*
X443951Y553767D01*
X444840Y557083D01*
Y560517D01*
X443951Y563833D01*
X442235Y566807D01*
X439807Y569235D01*
X438423Y570033D01*
Y572966D01*
X439807Y573765D01*
X442235Y576193D01*
X443951Y579167D01*
X444840Y582483D01*
Y585917D01*
X443951Y589233D01*
X442235Y592207D01*
X439807Y594635D01*
X436833Y596351D01*
X433517Y597240D01*
X430083D01*
X426767Y596351D01*
X423793Y594635D01*
X421365Y592207D01*
X419649Y589233D01*
X418760Y585917D01*
Y582483D01*
X419649Y579167D01*
X421365Y576193D01*
X423793Y573765D01*
X425177Y572966D01*
Y570033D01*
X423793Y569235D01*
X421365Y566807D01*
X419649Y563833D01*
X418760Y560517D01*
Y557083D01*
X419649Y553767D01*
X421365Y550793D01*
X423793Y548365D01*
X425177Y547566D01*
Y544633D01*
X423793Y543835D01*
X422325Y542367D01*
X384714D01*
X285740Y641340D01*
X283883Y642765D01*
X281721Y643661D01*
X279400Y643967D01*
X263475D01*
X262007Y645435D01*
X260623Y646234D01*
Y649166D01*
X262007Y649965D01*
X263475Y651433D01*
X446046D01*
X448233Y649246D01*
D02*
G37*
G36*
X374660Y527060D02*
X376517Y525635D01*
X378679Y524739D01*
X381000Y524433D01*
X422325D01*
X423793Y522965D01*
X425177Y522166D01*
Y519234D01*
X423793Y518435D01*
X421365Y516007D01*
X419649Y513033D01*
X418760Y509717D01*
Y506283D01*
X419649Y502967D01*
X421365Y499993D01*
X423793Y497565D01*
X425177Y496767D01*
Y493834D01*
X423793Y493035D01*
X421365Y490607D01*
X419649Y487633D01*
X418760Y484317D01*
Y480883D01*
X419649Y477567D01*
X421365Y474593D01*
X423793Y472165D01*
X424179Y471943D01*
X424400Y469102D01*
X422918Y467755D01*
X408526D01*
X285740Y590540D01*
X283883Y591965D01*
X281721Y592861D01*
X279400Y593167D01*
X263475D01*
X262007Y594635D01*
X260623Y595434D01*
Y598367D01*
X262007Y599165D01*
X264435Y601593D01*
X266151Y604567D01*
X267040Y607883D01*
Y611317D01*
X266151Y614633D01*
X264435Y617607D01*
X262007Y620035D01*
X260623Y620834D01*
Y623767D01*
X262007Y624565D01*
X263475Y626033D01*
X275686D01*
X374660Y527060D01*
D02*
G37*
D21*
X199650Y165100D02*
D03*
X130550D02*
D03*
X783850Y177800D02*
D03*
X714750D02*
D03*
D22*
X370200Y381000D02*
D03*
X341000D02*
D03*
X713100Y431800D02*
D03*
X683900D02*
D03*
Y609600D02*
D03*
X713100D02*
D03*
D23*
X718300Y173150D02*
Y177800D01*
X914400Y482600D02*
X939800D01*
X914400Y508000D02*
X939800D01*
X914400Y558800D02*
X939800D01*
X914400Y584200D02*
X939800D01*
X838200Y660400D02*
X914400Y584200D01*
X838200Y635000D02*
X914400Y558800D01*
X812800Y609600D02*
X914400Y508000D01*
X812800Y584200D02*
X914400Y482600D01*
X787400Y584200D02*
X812800D01*
X787400Y609600D02*
X812800D01*
X508000Y482600D02*
X635000D01*
X508000Y508000D02*
X635000D01*
X451349Y509588D02*
X457200Y515439D01*
X431800Y508000D02*
X433388Y509588D01*
X451349D01*
X457200Y515439D02*
Y652961D01*
X76200Y215900D02*
X302260D01*
X370200Y283840D01*
Y381000D01*
X427650Y402250D02*
X431800Y406400D01*
X427650Y384290D02*
Y402250D01*
X424361Y381000D02*
X427650Y384290D01*
X370200Y381000D02*
X424361D01*
X79489Y376850D02*
X97450D01*
X101600Y381000D01*
X449761Y660400D02*
X457200Y652961D01*
X254000Y660400D02*
X449761D01*
X381000Y533400D02*
X431800D01*
X279400Y635000D02*
X381000Y533400D01*
X254000Y635000D02*
X279400D01*
X430212Y458788D02*
X431800Y457200D01*
X404812Y458788D02*
X430212D01*
X279400Y584200D02*
X404812Y458788D01*
X254000Y584200D02*
X279400D01*
X683900Y431800D02*
Y609600D01*
Y320680D02*
Y431800D01*
X515620Y152400D02*
X683900Y320680D01*
X431800Y152400D02*
X515620D01*
X76200Y373560D02*
X79489Y376850D01*
X76200Y215900D02*
Y373560D01*
X711200Y166050D02*
X718300Y173150D01*
X711200Y50800D02*
Y166050D01*
X128588Y163138D02*
X130550Y165100D01*
X128588Y52388D02*
Y163138D01*
X127000Y50800D02*
X128588Y52388D01*
X228600Y165100D02*
X254000Y139700D01*
X199650Y165100D02*
X228600D01*
X787400Y177800D02*
X812800D01*
X838200Y152400D01*
X635000Y609600D02*
X683900D01*
X635000Y431800D02*
X683900D01*
X787400Y406400D02*
X939800D01*
X787400Y431800D02*
X939800D01*
X787400Y635000D02*
X838200D01*
X787400Y660400D02*
X838200D01*
D24*
X431800Y152400D02*
D03*
X838200D02*
D03*
X254000Y139700D02*
D03*
X76200Y215900D02*
D03*
X101600Y635000D02*
D03*
Y381000D02*
D03*
Y304800D02*
D03*
X431800Y406400D02*
D03*
X635000Y431800D02*
D03*
Y609600D02*
D03*
D25*
X431800Y330200D02*
D03*
X838200D02*
D03*
X254000Y177800D02*
D03*
X76200Y139700D02*
D03*
X254000Y381000D02*
D03*
X101600Y330200D02*
D03*
X508000Y584200D02*
D03*
X635000Y457200D02*
D03*
Y635000D02*
D03*
D26*
X254000Y660400D02*
D03*
Y635000D02*
D03*
Y609600D02*
D03*
Y584200D02*
D03*
Y558800D02*
D03*
Y533400D02*
D03*
Y508000D02*
D03*
Y482600D02*
D03*
Y457200D02*
D03*
Y431800D02*
D03*
Y406400D02*
D03*
Y355600D02*
D03*
Y330200D02*
D03*
Y304800D02*
D03*
X101600Y660400D02*
D03*
Y609600D02*
D03*
Y584200D02*
D03*
Y558800D02*
D03*
Y533400D02*
D03*
Y508000D02*
D03*
Y482600D02*
D03*
Y457200D02*
D03*
Y431800D02*
D03*
Y406400D02*
D03*
Y355600D02*
D03*
X508000Y558800D02*
D03*
Y533400D02*
D03*
Y508000D02*
D03*
Y482600D02*
D03*
Y457200D02*
D03*
Y431800D02*
D03*
Y406400D02*
D03*
X431800Y584200D02*
D03*
Y558800D02*
D03*
Y533400D02*
D03*
Y508000D02*
D03*
Y482600D02*
D03*
Y457200D02*
D03*
Y431800D02*
D03*
X787400Y508000D02*
D03*
Y482600D02*
D03*
Y457200D02*
D03*
Y431800D02*
D03*
Y406400D02*
D03*
Y381000D02*
D03*
X635000Y508000D02*
D03*
Y482600D02*
D03*
Y406400D02*
D03*
Y381000D02*
D03*
X787400Y685800D02*
D03*
Y660400D02*
D03*
Y635000D02*
D03*
Y609600D02*
D03*
Y584200D02*
D03*
Y558800D02*
D03*
X635000Y685800D02*
D03*
Y660400D02*
D03*
Y584200D02*
D03*
Y558800D02*
D03*
X203200Y50800D02*
D03*
X127000D02*
D03*
X939800Y406400D02*
D03*
Y431800D02*
D03*
X787400Y50800D02*
D03*
X711200D02*
D03*
X939800Y482600D02*
D03*
Y508000D02*
D03*
Y558800D02*
D03*
Y584200D02*
D03*
D27*
X914400Y76200D02*
D03*
Y711200D02*
D03*
X50800D02*
D03*
Y76200D02*
D03*
D28*
X812800Y508000D02*
D03*
Y304800D02*
D03*
X863600Y203200D02*
D03*
X812800Y101600D02*
D03*
X762000Y609600D02*
D03*
X711200Y508000D02*
D03*
X762000Y406400D02*
D03*
X711200Y304800D02*
D03*
X762000Y203200D02*
D03*
X660400Y406400D02*
D03*
X609600Y304800D02*
D03*
X660400Y203200D02*
D03*
X609600Y101600D02*
D03*
X508000Y304800D02*
D03*
Y101600D02*
D03*
X406400Y508000D02*
D03*
Y304800D02*
D03*
X457200Y203200D02*
D03*
X406400Y101600D02*
D03*
X355600Y609600D02*
D03*
X304800Y508000D02*
D03*
X355600Y406400D02*
D03*
X304800Y304800D02*
D03*
X355600Y203200D02*
D03*
X304800Y101600D02*
D03*
X203200Y508000D02*
D03*
Y304800D02*
D03*
X152400Y609600D02*
D03*
Y406400D02*
D03*
X101600Y101600D02*
D03*
M02*
