G04*
G04 #@! TF.GenerationSoftware,Altium Limited,Altium Designer,25.3.3 (18)*
G04*
G04 Layer_Color=8388736*
%FSLAX44Y44*%
%MOMM*%
G71*
G04*
G04 #@! TF.SameCoordinates,99CC6AD0-2A63-4927-AC08-F09ED2D19244*
G04*
G04*
G04 #@! TF.FilePolarity,Negative*
G04*
G01*
G75*
%ADD15R,2.4024X3.3324*%
%ADD16R,1.3524X1.9724*%
G04:AMPARAMS|DCode=17|XSize=2.2524mm|YSize=2.2524mm|CornerRadius=0.6012mm|HoleSize=0mm|Usage=FLASHONLY|Rotation=180.000|XOffset=0mm|YOffset=0mm|HoleType=Round|Shape=RoundedRectangle|*
%AMROUNDEDRECTD17*
21,1,2.2524,1.0500,0,0,180.0*
21,1,1.0500,2.2524,0,0,180.0*
1,1,1.2024,-0.5250,0.5250*
1,1,1.2024,0.5250,0.5250*
1,1,1.2024,0.5250,-0.5250*
1,1,1.2024,-0.5250,-0.5250*
%
%ADD17ROUNDEDRECTD17*%
%ADD18R,2.2524X2.2524*%
%ADD19C,2.2524*%
%ADD20C,6.1524*%
D15*
X199650Y165100D02*
D03*
X130550D02*
D03*
X783850Y177800D02*
D03*
X714750D02*
D03*
D16*
X370200Y381000D02*
D03*
X341000D02*
D03*
X713100Y431800D02*
D03*
X683900D02*
D03*
Y609600D02*
D03*
X713100D02*
D03*
D17*
X431800Y152400D02*
D03*
X838200D02*
D03*
X254000Y139700D02*
D03*
X76200Y215900D02*
D03*
X101600Y635000D02*
D03*
Y381000D02*
D03*
Y304800D02*
D03*
X431800Y406400D02*
D03*
X635000Y431800D02*
D03*
Y609600D02*
D03*
D18*
X431800Y330200D02*
D03*
X838200D02*
D03*
X254000Y177800D02*
D03*
X76200Y139700D02*
D03*
X254000Y381000D02*
D03*
X101600Y330200D02*
D03*
X508000Y584200D02*
D03*
X635000Y457200D02*
D03*
Y635000D02*
D03*
D19*
X254000Y660400D02*
D03*
Y635000D02*
D03*
Y609600D02*
D03*
Y584200D02*
D03*
Y558800D02*
D03*
Y533400D02*
D03*
Y508000D02*
D03*
Y482600D02*
D03*
Y457200D02*
D03*
Y431800D02*
D03*
Y406400D02*
D03*
Y355600D02*
D03*
Y330200D02*
D03*
Y304800D02*
D03*
X101600Y660400D02*
D03*
Y609600D02*
D03*
Y584200D02*
D03*
Y558800D02*
D03*
Y533400D02*
D03*
Y508000D02*
D03*
Y482600D02*
D03*
Y457200D02*
D03*
Y431800D02*
D03*
Y406400D02*
D03*
Y355600D02*
D03*
X508000Y558800D02*
D03*
Y533400D02*
D03*
Y508000D02*
D03*
Y482600D02*
D03*
Y457200D02*
D03*
Y431800D02*
D03*
Y406400D02*
D03*
X431800Y584200D02*
D03*
Y558800D02*
D03*
Y533400D02*
D03*
Y508000D02*
D03*
Y482600D02*
D03*
Y457200D02*
D03*
Y431800D02*
D03*
X787400Y508000D02*
D03*
Y482600D02*
D03*
Y457200D02*
D03*
Y431800D02*
D03*
Y406400D02*
D03*
Y381000D02*
D03*
X635000Y508000D02*
D03*
Y482600D02*
D03*
Y406400D02*
D03*
Y381000D02*
D03*
X787400Y685800D02*
D03*
Y660400D02*
D03*
Y635000D02*
D03*
Y609600D02*
D03*
Y584200D02*
D03*
Y558800D02*
D03*
X635000Y685800D02*
D03*
Y660400D02*
D03*
Y584200D02*
D03*
Y558800D02*
D03*
X203200Y50800D02*
D03*
X127000D02*
D03*
X939800Y406400D02*
D03*
Y431800D02*
D03*
X787400Y50800D02*
D03*
X711200D02*
D03*
X939800Y482600D02*
D03*
Y508000D02*
D03*
Y558800D02*
D03*
Y584200D02*
D03*
D20*
X914400Y76200D02*
D03*
Y711200D02*
D03*
X50800D02*
D03*
Y76200D02*
D03*
M02*
