M48
;Layer_Color=9474304
;FILE_FORMAT=4:4
METRIC,TZ
;TYPE=PLATED
T01F00S00C0.7112
T02F00S00C1.2000
T03F00S00C3.2000
%
T01
X101600Y101600
X304800
X355600Y203200
X304800Y304800
X203200
X406400
X508000
X609600
X711200
X762000Y203200
X660400
X609600Y101600
X508000
X406400
X457200Y203200
X863600
X812800Y304800
Y101600
Y508000
X711200
X762000Y609600
Y406400
X660400
X406400Y508000
X304800
X203200
X152400Y609600
X355600
Y406400
X152400
T02
X127000Y50800
X203200
X254000Y139700
Y177800
Y304800
Y330200
Y355600
Y381000
X101600
Y355600
Y330200
Y304800
X76200Y215900
Y139700
X431800Y152400
Y330200
X635000Y381000
X787400
Y50800
X711200
X838200Y152400
Y330200
X939800Y406400
Y431800
Y482600
Y508000
Y558800
Y584200
X787400
Y609600
Y635000
Y660400
Y685800
Y558800
Y508000
Y482600
Y457200
Y431800
Y406400
X635000
Y431800
Y457200
Y482600
Y508000
Y558800
Y584200
Y609600
Y635000
Y660400
Y685800
X508000Y584200
Y558800
Y533400
Y508000
Y482600
Y457200
Y431800
Y406400
X431800
Y431800
Y457200
Y482600
Y508000
Y533400
Y558800
Y584200
X254000
Y609600
Y635000
Y660400
Y558800
Y533400
Y508000
Y482600
Y457200
Y431800
Y406400
X101600
Y431800
Y457200
Y482600
Y508000
Y533400
Y558800
Y584200
Y609600
Y635000
Y660400
T03
X50800Y76200
X914400
Y711200
X50800
M30
